<?xml version="1.0" encoding="UTF-8"?>
<svg version="1.1" xmlns="http://www.w3.org/2000/svg" width="150" height="150">
<path d="M0 0 C0.886875 -0.00257812 1.77375 -0.00515625 2.6875 -0.0078125 C5 0.125 5 0.125 7 1.125 C7 1.785 7 2.445 7 3.125 C7.99 3.455 8.98 3.785 10 4.125 C12.1875 6.0625 12.1875 6.0625 14 8.125 C14 8.785 14 9.445 14 10.125 C14.99 10.455 15.98 10.785 17 11.125 C18.35386936 12.77502828 19.68678142 14.4424387 21 16.125 C21.99 16.785 22.98 17.445 24 18.125 C24 18.785 24 19.445 24 20.125 C25.485 20.62 25.485 20.62 27 21.125 C29.1875 23.0625 29.1875 23.0625 31 25.125 C31 25.785 31 26.445 31 27.125 C32.485 27.62 32.485 27.62 34 28.125 C35.33895632 29.78715268 36.67130142 31.45463607 38 33.125 C39.97956942 34.81588222 41.97945196 36.48330472 44 38.125 C46.375 40.3125 46.375 40.3125 48 42.125 C48 42.785 48 43.445 48 44.125 C49.485 44.62 49.485 44.62 51 45.125 C52.33895632 46.78715268 53.67130142 48.45463607 55 50.125 C56.97956942 51.81588222 58.97945196 53.48330472 61 55.125 C63.375 57.3125 63.375 57.3125 65 59.125 C65 59.785 65 60.445 65 61.125 C65.99 61.455 66.98 61.785 68 62.125 C69.37482707 63.75760714 70.70647667 65.42725062 72 67.125 C72.53109375 67.56972656 73.0621875 68.01445313 73.609375 68.47265625 C75.52543424 70.74932215 75.3364037 72.25409444 75.25 75.1875 C75.23453125 76.06535156 75.2190625 76.94320312 75.203125 77.84765625 C75 80.125 75 80.125 74 82.125 C73.34 82.125 72.68 82.125 72 82.125 C71.5978125 83.0221875 71.5978125 83.0221875 71.1875 83.9375 C70.00082594 86.12347854 68.90400887 87.53832594 67 89.125 C66.34 89.125 65.68 89.125 65 89.125 C64.5978125 90.0221875 64.5978125 90.0221875 64.1875 90.9375 C63.00082594 93.12347854 61.90400887 94.53832594 60 96.125 C59.34 96.125 58.68 96.125 58 96.125 C57.79375 96.66125 57.5875 97.1975 57.375 97.75 C55.46749574 101.04478009 52.95180616 103.71863628 50 106.125 C49.34 106.125 48.68 106.125 48 106.125 C47.5978125 107.0221875 47.5978125 107.0221875 47.1875 107.9375 C46.00082594 110.12347854 44.90400887 111.53832594 43 113.125 C42.34 113.125 41.68 113.125 41 113.125 C40.505 114.61 40.505 114.61 40 116.125 C39.34 116.125 38.68 116.125 38 116.125 C37.5978125 117.0221875 37.5978125 117.0221875 37.1875 117.9375 C36.00082594 120.12347854 34.90400887 121.53832594 33 123.125 C32.34 123.125 31.68 123.125 31 123.125 C30.5968457 124.01493652 30.5968457 124.01493652 30.18554688 124.92285156 C28.99709268 127.13040033 27.79257611 128.59042882 26.03125 130.359375 C25.17466797 131.21982422 25.17466797 131.21982422 24.30078125 132.09765625 C23.40939453 132.97744141 23.40939453 132.97744141 22.5 133.875 C21.90574219 134.47699219 21.31148438 135.07898438 20.69921875 135.69921875 C20.12816406 136.26769531 19.55710937 136.83617187 18.96875 137.421875 C18.44732422 137.94104492 17.92589844 138.46021484 17.38867188 138.99511719 C16 140.125 16 140.125 14 140.125 C13.731875 140.723125 13.46375 141.32125 13.1875 141.9375 C12.00082594 144.12347854 10.90400887 145.53832594 9 147.125 C8.34 147.125 7.68 147.125 7 147.125 C7 147.785 7 148.445 7 149.125 C3.29848239 150.97575881 -0.9597317 150.59093931 -5 150.125 C-7.875 148.375 -7.875 148.375 -10 146.125 C-10.763125 145.42375 -11.52625 144.7225 -12.3125 144 C-14 142.125 -14 142.125 -14 140.125 C-14.99 139.795 -15.98 139.465 -17 139.125 C-18.33895632 137.46284732 -19.67130142 135.79536393 -21 134.125 C-22.97956942 132.43411778 -24.97945196 130.76669528 -27 129.125 C-29.375 126.9375 -29.375 126.9375 -31 125.125 C-31 124.465 -31 123.805 -31 123.125 C-31.99 122.795 -32.98 122.465 -34 122.125 C-35.33895632 120.46284732 -36.67130142 118.79536393 -38 117.125 C-39.97956942 115.43411778 -41.97945196 113.76669528 -44 112.125 C-46.375 109.9375 -46.375 109.9375 -48 108.125 C-48 107.465 -48 106.805 -48 106.125 C-49.485 105.63 -49.485 105.63 -51 105.125 C-52.33895632 103.46284732 -53.67130142 101.79536393 -55 100.125 C-56.97956942 98.43411778 -58.97945196 96.76669528 -61 95.125 C-63.375 92.9375 -63.375 92.9375 -65 91.125 C-65 90.465 -65 89.805 -65 89.125 C-65.99 88.795 -66.98 88.465 -68 88.125 C-70.1875 86.1875 -70.1875 86.1875 -72 84.125 C-72 83.465 -72 82.805 -72 82.125 C-72.66 82.125 -73.32 82.125 -74 82.125 C-75.24377393 79.63745214 -75.13306235 77.89844699 -75.125 75.125 C-75.12757812 74.238125 -75.13015625 73.35125 -75.1328125 72.4375 C-75 70.125 -75 70.125 -74 68.125 C-73.34 68.125 -72.68 68.125 -72 68.125 C-71.731875 67.526875 -71.46375 66.92875 -71.1875 66.3125 C-70.00082594 64.12652146 -68.90400887 62.71167406 -67 61.125 C-66.34 61.125 -65.68 61.125 -65 61.125 C-64.67 60.135 -64.34 59.145 -64 58.125 C-63.34 58.125 -62.68 58.125 -62 58.125 C-61.34 56.805 -60.68 55.485 -60 54.125 C-59.34 54.125 -58.68 54.125 -58 54.125 C-57.67 53.135 -57.34 52.145 -57 51.125 C-56.34 51.125 -55.68 51.125 -55 51.125 C-54.5978125 50.2278125 -54.5978125 50.2278125 -54.1875 49.3125 C-53.00082594 47.12652146 -51.90400887 45.71167406 -50 44.125 C-49.34 44.125 -48.68 44.125 -48 44.125 C-47.5978125 43.2278125 -47.5978125 43.2278125 -47.1875 42.3125 C-46.00082594 40.12652146 -44.90400887 38.71167406 -43 37.125 C-42.34 37.125 -41.68 37.125 -41 37.125 C-40.67 36.135 -40.34 35.145 -40 34.125 C-39.34 34.125 -38.68 34.125 -38 34.125 C-37.731875 33.526875 -37.46375 32.92875 -37.1875 32.3125 C-36.00082594 30.12652146 -34.90400887 28.71167406 -33 27.125 C-32.34 27.125 -31.68 27.125 -31 27.125 C-30.34 25.805 -29.68 24.485 -29 23.125 C-23.96829444 23.125 -21.32841862 27.11941271 -17.875 30.5 C-17.13378906 31.17933594 -16.39257812 31.85867187 -15.62890625 32.55859375 C-11.73318256 36.36885367 -9.59738839 38.93162744 -9.1640625 44.47265625 C-9.17493896 45.69480835 -9.17493896 45.69480835 -9.18603516 46.94165039 C-9.17501141 49.49859719 -9.17501141 49.49859719 -6.5 52.1875 C-5.675 52.826875 -4.85 53.46625 -4 54.125 C-0.97260926 57.15239074 -2.62997891 68.56587612 -2.5949707 72.87011719 C-2.57339905 74.866387 -2.53930602 76.86256245 -2.49243164 78.85839844 C-2.42547047 81.73415433 -2.39797673 84.60794972 -2.37890625 87.484375 C-2.35107559 88.37413025 -2.32324493 89.2638855 -2.29457092 90.18060303 C-2.31487321 96.30725145 -2.31487321 96.30725145 -4.34274292 98.72766113 C-5.84076732 99.93114039 -7.41805492 101.03417957 -9 102.125 C-10.13356005 105.52568015 -10.2103223 107.37134508 -9.25 110.8125 C-7.59611441 113.89259487 -7.59611441 113.89259487 -5 116.125 C-0.9023074 117.20740937 1.32068538 117.38134514 5.3125 115.875 C8.20708249 114.24182876 8.20708249 114.24182876 10 111.125 C10.55909461 107.04201774 10.55909461 107.04201774 10 103.125 C9.1735498 102.46008545 8.34709961 101.7951709 7.49560547 101.11010742 C3.95325554 96.87294125 4.36068762 93.58410236 4.51171875 88.23046875 C4.51879349 87.28311356 4.52586823 86.33575836 4.53315735 85.35969543 C4.56107666 82.34314979 4.62381085 79.3284816 4.6875 76.3125 C4.71258604 74.26369874 4.73539867 72.2148683 4.75585938 70.16601562 C4.81089541 65.15162379 4.89715144 60.13862986 5 55.125 C6.1069506 56.07296455 7.21377887 57.02107195 8.32055664 57.96923828 C8.93693497 58.49720001 9.55331329 59.02516174 10.18836975 59.56912231 C21.58098 69.35340808 21.58098 69.35340808 22.53125 73.37109375 C22.4439541 75.29524085 22.22693185 77.21228869 22 79.125 C23.72967713 82.87047604 23.72967713 82.87047604 27 85.125 C31.73790088 85.77657772 34.99519212 85.78120107 39.0625 83.125 C41.22259236 79.78034086 41.67672257 77.95602236 41.43359375 74.05859375 C40.75194607 71.01881354 39.19767713 69.25803956 37 67.125 C34.13011773 65.69005886 31.27074926 65.84878527 28.09375 65.69921875 C27.4028125 65.50972656 26.711875 65.32023437 26 65.125 C24.90625 63.14453125 24.90625 63.14453125 24 61.125 C22.515 60.63 22.515 60.63 21 60.125 C21 59.465 21 58.805 21 58.125 C19.68 57.465 18.36 56.805 17 56.125 C17 55.465 17 54.805 17 54.125 C15.515 53.63 15.515 53.63 14 53.125 C14 52.465 14 51.805 14 51.125 C12.515 50.63 12.515 50.63 11 50.125 C10.97421875 49.53332031 10.9484375 48.94164062 10.921875 48.33203125 C10.65588819 44.62635133 10.23960834 41.64985636 8.6875 38.25 C5.02585245 35.3547438 1.3529543 34.96313101 -3.15625 34 C-7.42705394 32.68590648 -8.53980134 30.77802225 -11 27.125 C-11.825 26.465 -12.65 25.805 -13.5 25.125 C-16.49516861 22.72886511 -18.61514775 20.12309997 -21 17.125 C-20.34 15.805 -19.68 14.485 -19 13.125 C-18.34 13.125 -17.68 13.125 -17 13.125 C-16.67 12.135 -16.34 11.145 -16 10.125 C-15.34 10.125 -14.68 10.125 -14 10.125 C-13.731875 9.526875 -13.46375 8.92875 -13.1875 8.3125 C-12.00082594 6.12652146 -10.90400887 4.71167406 -9 3.125 C-8.34 3.125 -7.68 3.125 -7 3.125 C-7 2.465 -7 1.805 -7 1.125 C-4.51245214 -0.11877393 -2.77344699 -0.00806235 0 0 Z " fill="#DE4C35" transform="translate(75,-0.125)"/>
</svg>
