<?xml version="1.0" encoding="UTF-8"?>
<svg version="1.1" xmlns="http://www.w3.org/2000/svg" width="150" height="150">
<path d="M0 0 C49.5 0 99 0 150 0 C150 49.5 150 99 150 150 C100.5 150 51 150 0 150 C0 100.5 0 51 0 0 Z " fill="#EFDA4E" transform="translate(0,0)"/>
<path d="M0 0 C3.0625 2.5 3.0625 2.5 5 5 C4.90625 6.984375 4.90625 6.984375 4 9 C1.93359375 10.484375 1.93359375 10.484375 -0.5625 11.75 C-1.38878906 12.17796875 -2.21507812 12.6059375 -3.06640625 13.046875 C-3.70449219 13.36140625 -4.34257813 13.6759375 -5 14 C-5.86625 13.175 -6.7325 12.35 -7.625 11.5 C-10.05633108 9.47676468 -10.93147567 9.01074891 -14.1875 8.5 C-16.94514919 8.83553781 -16.94514919 8.83553781 -18.9375 10.0625 C-20.72969591 13.33062196 -20.00531874 15.50389153 -19 19 C-16.68668047 20.94943508 -14.08746219 22.0249162 -11.3125 23.1875 C-9.89018855 23.82294579 -8.46958354 24.46222598 -7.05078125 25.10546875 C-6.36282471 25.41597168 -5.67486816 25.72647461 -4.96606445 26.04638672 C-0.57848957 28.17452127 3.16868645 30.77148797 6.3125 34.5 C6.80363281 35.0671875 7.29476562 35.634375 7.80078125 36.21875 C10.85545466 40.75598477 10.69379283 46.74924974 10 52 C7.78649923 57.59099764 4.37488501 61.25986254 -1 64 C-10.15388074 67.05129358 -19.16618928 67.13009332 -28 63 C-32.00494169 60.66702426 -35.67463112 58.10359214 -38 54 C-38 53.01 -38 52.02 -38 51 C-36.59546357 50.10565843 -35.17578131 49.23506808 -33.75 48.375 C-32.56664063 47.64410156 -32.56664063 47.64410156 -31.359375 46.8984375 C-29 46 -29 46 -26.8671875 46.72265625 C-24.47409967 48.35976864 -22.24600174 50.16773542 -20 52 C-16.79789474 53.60105263 -13.48183093 53.35284329 -10 53 C-6.94350714 52.15163476 -6.94350714 52.15163476 -5 50 C-3.91604398 46.58760436 -3.91604398 46.58760436 -5 43 C-8.12869999 39.84328181 -12.47307336 38.24789503 -16.4375 36.3828125 C-23.27129467 33.14225058 -28.65570202 30.45438558 -33 24 C-34.93190578 18.20428265 -35.39746269 11.12857564 -32.87109375 5.47265625 C-29.3465795 0.53097439 -25.5154876 -1.95485504 -19.6875 -3.6875 C-12.07141183 -4.57309165 -6.52731409 -4.37514111 0 0 Z " fill="#343530" transform="translate(128,72)"/>
<path d="M0 0 C4.29 0 8.58 0 13 0 C13.09912916 7.68632272 13.17159374 15.37227046 13.21972656 23.05908203 C13.23979933 25.67210373 13.26706358 28.28508075 13.30175781 30.89794922 C13.35046435 34.66124522 13.37301311 38.42394549 13.390625 42.1875 C13.41127014 43.34926758 13.43191528 44.51103516 13.45318604 45.70800781 C13.45539394 53.75066413 12.50151763 59.40384675 6.6875 65.375 C0.0803814 69.37000194 -6.86842741 69.86961213 -14.328125 68.60546875 C-19.99812668 67.11082545 -23.11784181 64.35506561 -26.8828125 59.9375 C-27.43582031 58.9784375 -27.43582031 58.9784375 -28 58 C-26.85629945 54.56889836 -26.13496691 54.08503436 -23.1875 52.1875 C-22.50042969 51.72730469 -21.81335937 51.26710937 -21.10546875 50.79296875 C-19 50 -19 50 -16.85546875 50.73046875 C-15 52 -15 52 -13.125 54.125 C-11.08323437 56.28281814 -11.08323437 56.28281814 -7.9375 56.375 C-4.81457626 56.19767963 -4.81457626 56.19767963 -2 54 C-1.01896712 51.05690137 -0.84778313 49.0503097 -0.79467773 45.9777832 C-0.77473251 44.95695145 -0.75478729 43.93611969 -0.73423767 42.88435364 C-0.71752518 41.78427475 -0.70081268 40.68419586 -0.68359375 39.55078125 C-0.66281265 38.4230278 -0.64203156 37.29527435 -0.62062073 36.13334656 C-0.55517153 32.5264604 -0.49626156 28.91950071 -0.4375 25.3125 C-0.39431039 22.86913298 -0.35069596 20.42577344 -0.30664062 17.98242188 C-0.1994948 11.98835684 -0.09821409 5.99421776 0 0 Z " fill="#333330" transform="translate(68,69)"/>
</svg>
