<?xml version="1.0" encoding="UTF-8"?>
<svg version="1.1" xmlns="http://www.w3.org/2000/svg" width="150" height="150">
<path d="M0 0 C0 0.66 0 1.32 0 2 C-1.7015625 2.680625 -1.7015625 2.680625 -3.4375 3.375 C-7.04721692 4.57095806 -7.04721692 4.57095806 -8 7 C1.69436247 9.44423765 10.55623319 10.47116273 20.5625 10.375 C22.37911133 10.39240234 22.37911133 10.39240234 24.23242188 10.41015625 C37.82417786 10.65534805 37.82417786 10.65534805 49.73657227 5.39599609 C50.15350342 4.93531738 50.57043457 4.47463867 51 4 C51.66 4 52.32 4 53 4 C53.495 5.98 53.495 5.98 54 8 C46.13786984 16.14292053 31.67017629 15.95931645 21.0534668 16.16601562 C8.87800009 16.28609195 -3.63184877 15.70406258 -15 11 C-15.66 10.34 -16.32 9.68 -17 9 C-16.86328125 7.01171875 -16.86328125 7.01171875 -16 5 C-14.29296875 3.76953125 -14.29296875 3.76953125 -12.1875 2.8125 C-11.50042969 2.48894531 -10.81335937 2.16539063 -10.10546875 1.83203125 C-6.50855793 0.41061751 -3.92567616 0 0 0 Z " fill="#00758F" transform="translate(53,107)"/>
<path d="M0 0 C0.99 0.33 1.98 0.66 3 1 C4.64948405 5.94845216 4.94976207 10.42807794 3.1171875 15.390625 C-0.29330268 21.72147503 -5.12493825 26.24525071 -10.50463867 30.88989258 C-14.69855128 34.52740091 -16.73851685 36.73381269 -17.375 42.25 C-16.860704 47.39295998 -15.10176619 51.93334685 -11.36328125 55.609375 C-10 57 -10 57 -10 59 C-13.88379688 57.67828902 -16.30871782 56.09969164 -19.1875 53.1875 C-19.86167969 52.52105469 -20.53585938 51.85460937 -21.23046875 51.16796875 C-24.14270917 47.59999208 -25.40370962 44.28810755 -25 39.6875 C-23.62244272 30.59861667 -16.49851249 25.41361973 -9.67089844 20.03173828 C-5.4587491 16.65477801 -1.84067426 13.1255838 -0.390625 7.734375 C-0.10389601 3.87099879 -0.10389601 3.87099879 0 0 Z " fill="#F29111" transform="translate(84,22)"/>
<path d="M0 0 C-0.61488281 0.45890625 -1.22976562 0.9178125 -1.86328125 1.390625 C-2.67152344 2.00421875 -3.47976562 2.6178125 -4.3125 3.25 C-5.11300781 3.85328125 -5.91351563 4.4565625 -6.73828125 5.078125 C-9.71870753 7.6107152 -11.54494453 9.70014248 -12.84375 13.41015625 C-13.04579585 16.75906627 -12.06929259 18.4950764 -10.5 21.4375 C-8.89011976 24.77833782 -8.00677746 26.63401711 -7.9375 30.375 C-9.20827153 33.51455318 -10.60301677 35.60301677 -13 38 C-15.13671875 38.63671875 -15.13671875 38.63671875 -17 39 C-16.731875 37.72125 -16.46375 36.4425 -16.1875 35.125 C-15.6759723 30.89327082 -16.42168709 28.63037004 -18.5 24.9375 C-20.65669514 21.01788832 -21.79737817 18.3838166 -20.828125 13.94140625 C-17.95733538 7.21130039 -12.32121679 3.16614716 -6.11328125 -0.28515625 C-3.6430264 -1.12075078 -2.42034854 -0.86870297 0 0 Z " fill="#F29111" transform="translate(95,45)"/>
<path d="M0 0 C0.66 0.66 1.32 1.32 2 2 C-0.97 2.66 -3.94 3.32 -7 4 C-7 4.66 -7 5.32 -7 6 C7.18457675 7.28227272 7.18457675 7.28227272 21.359375 6.4453125 C22.12475586 6.34323486 22.89013672 6.24115723 23.67871094 6.13598633 C25.20520536 5.92325966 26.729549 5.6943637 28.25097656 5.44799805 C33.56957607 4.68811078 33.56957607 4.68811078 36 6.44921875 C36.495 7.21685547 36.495 7.21685547 37 8 C35.67037928 8.48937429 34.33600575 8.96583581 33 9.4375 C31.88625 9.83775391 31.88625 9.83775391 30.75 10.24609375 C18.36326799 13.64188818 -2.50542745 14.68305436 -13.85546875 8.42578125 C-14.56316406 7.95527344 -15.27085938 7.48476562 -16 7 C-15.4375 5.1171875 -15.4375 5.1171875 -14 3 C-10.8125 1.8828125 -10.8125 1.8828125 -7 1.125 C-5.741875 0.85945313 -4.48375 0.59390625 -3.1875 0.3203125 C-1.6096875 0.16175781 -1.6096875 0.16175781 0 0 Z " fill="#00758F" transform="translate(62,79)"/>
<path d="M0 0 C-0.33 0.66 -0.66 1.32 -1 2 C8.90061047 3.52317084 18.57560975 3.21008648 28.50390625 2.0234375 C31 2 31 2 34 4 C34 4.66 34 5.32 34 6 C21.54015701 9.97654564 4.82365042 11.47866924 -7.34765625 5.9296875 C-7.89292969 5.62289062 -8.43820313 5.31609375 -9 5 C-9 3.68 -9 2.36 -9 1 C-5.57367167 -0.61798838 -3.61944899 -1.34053666 0 0 Z " fill="#00758F" transform="translate(60,93)"/>
<path d="M0 0 C1.9375 0.6875 1.9375 0.6875 3.9375 1.6875 C5.40153793 1.73615111 6.86786972 1.7244649 8.33203125 1.6796875 C9.20537109 1.66292969 10.07871094 1.64617187 10.97851562 1.62890625 C12.81466475 1.58491113 14.65064122 1.53292863 16.48632812 1.47265625 C21.49312556 1.39172345 24.84951867 1.41368686 28.9375 4.6875 C22.17954328 10.44427795 12.33798946 9.18164644 3.9375 8.6875 C0.6770951 7.96853892 -1.98212783 7.0076595 -5.0625 5.6875 C-5.0625 4.3675 -5.0625 3.0475 -5.0625 1.6875 C-2.0625 -0.3125 -2.0625 -0.3125 0 0 Z " fill="#00758F" transform="translate(61.0625,104.3125)"/>
<path d="M0 0 C0.495 1.485 0.495 1.485 1 3 C-8.97329098 12.03829495 -23.15299771 12.35016795 -35.9375 12.3125 C-37.02740234 12.32861328 -38.11730469 12.34472656 -39.24023438 12.36132812 C-46.88896353 12.36587282 -53.67585141 11.18213558 -61 9 C-61 8.67 -61 8.34 -61 8 C-59.48200806 8.02356567 -59.48200806 8.02356567 -57.93334961 8.04760742 C-54.10335562 8.10276787 -50.27339498 8.13665593 -46.44311523 8.16479492 C-44.79950009 8.17968883 -43.15592326 8.20001089 -41.51245117 8.22631836 C-26.76639628 8.4560919 -13.01843149 7.74979569 0 0 Z " fill="#00758F" transform="translate(110,116)"/>
<path d="M0 0 C7.97727273 -0.46022727 7.97727273 -0.46022727 11.5 1.125 C13.62008495 3.77510618 13.93242679 5.62133951 14 9 C11.78693506 14.33739191 7.41026094 17.73748236 2.375 20.375 C-0.2478096 21.06521305 -1.45121983 20.74204992 -4 20 C-3.37351562 19.57589844 -2.74703125 19.15179688 -2.1015625 18.71484375 C3.45422457 14.92094602 3.45422457 14.92094602 6.6875 9.25 C7.35936438 5.85460619 7.35936438 5.85460619 5 3 C2.43717258 2.27034634 2.43717258 2.27034634 0 2 C0 1.34 0 0.68 0 0 Z " fill="#00758F" transform="translate(100,79)"/>
</svg>
