<?xml version="1.0" encoding="UTF-8"?>
<svg version="1.1" xmlns="http://www.w3.org/2000/svg" width="150" height="150">
<path d="M0 0 C5.80500607 4.96212462 7.13993947 10.89408407 7.74023438 18.15820312 C7.87085738 19.91579387 7.99850322 21.67360863 8.12304688 23.43164062 C9.14773936 35.66333016 14.72054186 45.7892214 22.0625 55.5 C29.69808707 65.76351379 33.88733946 77.13357786 33 90 C32 92.5 32 92.5 31 94 C31.45375 94.350625 31.9075 94.70125 32.375 95.0625 C34 97 34 97 34.6875 100.3125 C36.31436541 104.8832171 38.32649536 105.95719941 42.22265625 108.578125 C44 110 44 110 45 112.875 C45 113.57625 45 114.2775 45 115 C41.2127543 118.02173859 37.555459 120.86773082 33.125 122.875 C29.58617668 124.50563428 26.94950886 126.64839681 24 129.1875 C19.46797939 132.92016115 16.8782484 134.19594161 11 134 C7.625 133.375 7.625 133.375 5 132 C3.8359375 129.4140625 3.8359375 129.4140625 3 127 C-1.52175739 127.05207226 -6.04163375 127.14720225 -10.5625 127.25 C-11.83931641 127.26417969 -13.11613281 127.27835938 -14.43164062 127.29296875 C-21.47434991 127.47589626 -26.29350439 127.74213792 -32 132 C-35.32201176 134.21467451 -36.60982273 134.19633189 -40.4453125 133.61328125 C-44.86502019 132.55228109 -49.0602893 130.85952814 -53.3125 129.26953125 C-57.93030863 127.67971366 -62.57268453 126.63705601 -67.35546875 125.67578125 C-70 125 -70 125 -73 123 C-72.9278125 122.154375 -72.855625 121.30875 -72.78125 120.4375 C-72.27656954 114.26918322 -71.87865498 108.18859588 -72 102 C-69.1456618 100.74073315 -67.01822095 100.00109326 -63.875 99.8125 C-60.69533743 99.26732047 -60.69533743 99.26732047 -59.1875 96 C-58.21613362 93.27797897 -57.88605587 90.87349993 -57.75 88 C-57.26629275 81.98968017 -54.37755496 76.87411876 -51.74609375 71.55859375 C-50.44300129 68.90285051 -49.31133842 66.31353143 -48.25 63.5625 C-47.0068115 60.52667808 -45.47912539 58.33790243 -43.3125 55.91796875 C-33.78928913 44.79399899 -34.0523949 34.93580858 -34.80859375 20.66015625 C-35.1607276 13.51083293 -34.72543528 7.74039721 -30.875 1.625 C-22.07968711 -6.40550307 -9.96924702 -5.75489393 0 0 Z " fill="#040303" transform="translate(89,10)"/>
<path d="M0 0 C3.4375 1.125 3.4375 1.125 5.375 3.25 C6.64704794 6.69201208 6.65171084 9.48341574 6.4375 13.125 C5.1175 13.455 3.7975 13.785 2.4375 14.125 C2.4375 13.135 2.4375 12.145 2.4375 11.125 C1.7775 11.125 1.1175 11.125 0.4375 11.125 C0.4375 10.135 0.4375 9.145 0.4375 8.125 C-0.2225 8.125 -0.8825 8.125 -1.5625 8.125 C-1.5625 7.465 -1.5625 6.805 -1.5625 6.125 C-2.2225 6.125 -2.8825 6.125 -3.5625 6.125 C-3.5625 8.105 -3.5625 10.085 -3.5625 12.125 C-0.2625 13.775 3.0375 15.425 6.4375 17.125 C6.251875 19.22875 6.251875 19.22875 6.0625 21.375 C6.04604557 27.19986793 8.09976295 31.13124197 10.84765625 36.16796875 C12.72370088 39.65731957 14.15999172 43.21104066 15.5625 46.91015625 C16.47885373 49.34038983 16.47885373 49.34038983 18.125 52.375 C20.14680751 58.15159289 20.1929088 64.04395681 20.4375 70.125 C22.9125 69.63 22.9125 69.63 25.4375 69.125 C26.58774437 58.13377602 23.79849832 51.34283165 18.4375 42.125 C18.1075 41.465 17.7775 40.805 17.4375 40.125 C23.44393833 42.56917837 26.25939169 48.50103149 28.8125 54.1875 C29.80137148 58.83519595 29.95148177 63.24040019 28.6875 67.875 C28.605 68.6175 28.5225 69.36 28.4375 70.125 C30.27108335 72.45954661 30.27108335 72.45954661 32.4375 74.125 C31.66664062 74.09019531 30.89578125 74.05539063 30.1015625 74.01953125 C29.09867187 73.99246094 28.09578125 73.96539062 27.0625 73.9375 C26.06476563 73.90269531 25.06703125 73.86789063 24.0390625 73.83203125 C22.75128906 73.97705078 22.75128906 73.97705078 21.4375 74.125 C20.7775 75.115 20.1175 76.105 19.4375 77.125 C16.8125 78.3125 16.8125 78.3125 14.4375 79.125 C14.39991577 80.26714966 14.39991577 80.26714966 14.36157227 81.43237305 C14.24530952 84.89257376 14.12272022 88.35252254 14 91.8125 C13.96068359 93.01068359 13.92136719 94.20886719 13.88085938 95.44335938 C13.81801758 97.17875977 13.81801758 97.17875977 13.75390625 98.94921875 C13.69891968 100.54382935 13.69891968 100.54382935 13.64282227 102.1706543 C13.4526475 104.90704532 13.0443493 107.45356732 12.4375 110.125 C11.4475 109.795 10.4575 109.465 9.4375 109.125 C10.40105353 99.71497722 10.40105353 99.71497722 11.4375 95.125 C10.715625 95.888125 9.99375 96.65125 9.25 97.4375 C3.77827247 102.66603964 -0.6801073 104.27025821 -8.125 104.25 C-9.07503906 104.25257813 -10.02507812 104.25515625 -11.00390625 104.2578125 C-13.5625 104.125 -13.5625 104.125 -16.5625 103.125 C-16.5625 105.435 -16.5625 107.745 -16.5625 110.125 C-17.5525 110.62 -17.5525 110.62 -18.5625 111.125 C-18.830625 109.908125 -19.09875 108.69125 -19.375 107.4375 C-20.24744361 103.90378956 -21.48406939 101.1481718 -23.5625 98.125 C-22.0775 97.135 -22.0775 97.135 -20.5625 96.125 C-19.93646872 93.7273414 -19.93646872 93.7273414 -20.5625 91.125 C-22.46279452 88.79936765 -22.46279452 88.79936765 -25.0625 86.75 C-25.97128906 85.97398438 -26.88007812 85.19796875 -27.81640625 84.3984375 C-28.72261719 83.64820312 -29.62882812 82.89796875 -30.5625 82.125 C-41.1282468 73.2702339 -41.1282468 73.2702339 -41.8359375 68.14453125 C-42.09232087 62.73089772 -42.09232087 62.73089772 -40.0390625 60.3828125 C-39.55179688 59.96773437 -39.06453125 59.55265625 -38.5625 59.125 C-38.60890625 59.80046875 -38.6553125 60.4759375 -38.703125 61.171875 C-38.73921875 62.06390625 -38.7753125 62.9559375 -38.8125 63.875 C-38.85890625 64.75671875 -38.9053125 65.6384375 -38.953125 66.546875 C-38.44880587 69.87538125 -37.08663371 70.99836766 -34.5625 73.125 C-34.60890625 72.30257812 -34.6553125 71.48015625 -34.703125 70.6328125 C-34.97400453 62.25489558 -34.33920441 54.86421403 -28.953125 48.10546875 C-27.37323175 45.85545224 -27.20998224 44.70943366 -27.125 42 C-26.71046583 36.58402099 -24.76934501 32.0416454 -22.5625 27.125 C-18.734375 28.859375 -18.734375 28.859375 -17.1875 31.25 C-15.66409877 33.37884833 -15.66409877 33.37884833 -12.875 33.75 C-8.13223302 32.85513831 -5.17748736 30.20783186 -1.5625 27.125 C-2.738125 27.640625 -3.91375 28.15625 -5.125 28.6875 C-9.26246395 30.23813036 -12.23416594 30.33693354 -16.5625 29.125 C-17.2225 28.135 -17.8825 27.145 -18.5625 26.125 C-14.2725 25.465 -9.9825 24.805 -5.5625 24.125 C-9.6399742 25.14436855 -13.39583714 25.76031295 -17.5625 25.125 C-20.5625 23.125 -20.5625 23.125 -22.5625 21.125 C-22.376875 20.17625 -22.19125 19.2275 -22 18.25 C-21.27563368 15.22631207 -21.27563368 15.22631207 -22.5625 13.125 C-22.765625 11.06640625 -22.765625 11.06640625 -22.8125 8.6875 C-22.83828125 7.90503906 -22.8640625 7.12257813 -22.890625 6.31640625 C-22.5625 4.125 -22.5625 4.125 -21.20703125 2.3359375 C-19.5625 1.125 -19.5625 1.125 -17 1.1875 C-14.5625 2.125 -14.5625 2.125 -13.25 3.875 C-12.47844573 6.40008669 -12.41660516 8.49889293 -12.5625 11.125 C-10.9125 11.125 -9.2625 11.125 -7.5625 11.125 C-7.645 10.238125 -7.7275 9.35125 -7.8125 8.4375 C-7.5625 5.125 -7.5625 5.125 -6 2.1875 C-3.5625 0.125 -3.5625 0.125 0 0 Z " fill="#FCFCFC" transform="translate(80.5625,24.875)"/>
<path d="M0 0 C7.41149174 5.01031967 12.47514052 14.47070667 17 22 C17 22.66 17 23.32 17 24 C17.99 24.33 18.98 24.66 20 25 C22.34264206 28.24365824 23.43589129 31.05123902 24 35 C24.26932521 30.34947128 24.26932521 30.34947128 23 26 C24.07314453 26.48533203 24.07314453 26.48533203 25.16796875 26.98046875 C30.99546288 29.07836664 37.57812967 28.74367824 43.4375 26.8125 C47.11126976 24.94338907 48.66636777 23.32093818 51 20 C51.66 20 52.32 20 53 20 C52.67 24.62 52.34 29.24 52 34 C52.66 34.33 53.32 34.66 54 35 C54.029729 33.6070874 54.029729 33.6070874 54.06005859 32.18603516 C54.13808613 28.7454948 54.22477462 25.30540109 54.31738281 21.86523438 C54.35569998 20.37541111 54.39054808 18.88549446 54.421875 17.39550781 C54.46746729 15.25551952 54.52546874 13.11617564 54.5859375 10.9765625 C54.63306885 9.04417725 54.63306885 9.04417725 54.68115234 7.07275391 C55 4 55 4 57 2 C59.625 1.875 59.625 1.875 62 2 C62.103125 2.763125 62.20625 3.52625 62.3125 4.3125 C63.07203801 7.28160312 63.36995016 8.4219701 66 10 C70.17355472 9.92271195 72.35391621 9.52302021 75.625 6.875 C78 5 78 5 80.5625 4.6875 C84.04411251 6.56221443 84.44389134 9.12876267 85.82421875 12.71875 C87.44319447 15.85988562 89.56952722 17.06440558 92.515625 18.87109375 C94 20 94 20 94.9375 22.8125 C94.958125 23.534375 94.97875 24.25625 95 25 C91.2127543 28.02173859 87.555459 30.86773082 83.125 32.875 C79.58617668 34.50563428 76.94950886 36.64839681 74 39.1875 C69.46797939 42.92016115 66.8782484 44.19594161 61 44 C57.625 43.375 57.625 43.375 55 42 C53.8359375 39.4140625 53.8359375 39.4140625 53 37 C48.47824261 37.05207226 43.95836625 37.14720225 39.4375 37.25 C37.52227539 37.27126953 37.52227539 37.27126953 35.56835938 37.29296875 C28.52565009 37.47589626 23.70649561 37.74213792 18 42 C14.67798824 44.21467451 13.39017727 44.19633189 9.5546875 43.61328125 C5.13497981 42.55228109 0.9397107 40.85952814 -3.3125 39.26953125 C-7.93030863 37.67971366 -12.57268453 36.63705601 -17.35546875 35.67578125 C-20 35 -20 35 -23 33 C-22.9278125 32.154375 -22.855625 31.30875 -22.78125 30.4375 C-22.27656954 24.26918322 -21.87865498 18.18859588 -22 12 C-19.15125104 10.74319899 -17.07927567 10.00323574 -13.9375 9.875 C-10.93662105 9.32237541 -10.93662105 9.32237541 -9.80078125 7.1953125 C-9.11092667 5.75405497 -8.46190281 4.29239286 -7.859375 2.8125 C-6.23327212 -0.61709881 -3.43453328 -0.61058369 0 0 Z " fill="#ECCA2E" transform="translate(39,100)"/>
<path d="M0 0 C5.76196405 1.17858355 9.61866602 7.14872425 12.76953125 11.82421875 C13.70962895 13.29369186 14.6406286 14.76902464 15.5625 16.25 C16.03880859 16.99572266 16.51511719 17.74144531 17.00585938 18.50976562 C23.36496297 28.53586286 23.36496297 28.53586286 22.75 34.5625 C20.48529412 39.19485294 20.48529412 39.19485294 17.75 40.5625 C10.06594464 40.50071865 2.63634923 38.4815025 -4.75 36.5625 C-5.8328125 36.28921875 -6.915625 36.0159375 -8.03125 35.734375 C-15.93941327 33.71779337 -15.93941327 33.71779337 -18.25 32.5625 C-17.74396008 30.39375748 -17.25016187 28.56282373 -16.25 26.5625 C-16.33838461 24.18466895 -16.49346421 21.80904854 -16.6875 19.4375 C-16.78933594 18.15617187 -16.89117188 16.87484375 -16.99609375 15.5546875 C-17.07988281 14.56726563 -17.16367187 13.57984375 -17.25 12.5625 C-16.20199219 12.52382812 -16.20199219 12.52382812 -15.1328125 12.484375 C-14.22273438 12.42765625 -13.31265625 12.3709375 -12.375 12.3125 C-11.47007813 12.26609375 -10.56515625 12.2196875 -9.6328125 12.171875 C-7.11413728 11.80274012 -7.11413728 11.80274012 -5.92578125 9.6796875 C-5.10811323 7.51589707 -5.10811323 7.51589707 -5.3125 4.9375 C-5.291875 4.15375 -5.27125 3.37 -5.25 2.5625 C-2.25 0.5625 -2.25 0.5625 0 0 Z " fill="#EFCD2E" transform="translate(36.25,99.4375)"/>
<path d="M0 0 C1 3 1 3 0.1875 5.6875 C-2 8 -2 8 -4.4296875 8.3203125 C-6.97030997 8.31311527 -9.46884398 8.21369985 -12 8 C-11.67 9.19625 -11.34 10.3925 -11 11.625 C-9.38505148 18.2242141 -9.81923448 21.94059973 -13 28 C-11.25976562 28.38091797 -11.25976562 28.38091797 -9.484375 28.76953125 C-7.90617715 29.11685665 -6.32805748 29.46453739 -4.75 29.8125 C-3.93112305 29.99264648 -3.11224609 30.17279297 -2.26855469 30.35839844 C3.33319676 31.60103274 8.88820147 32.9634238 14.421875 34.484375 C17.36073499 35.072147 20.01018396 35.1761182 23 35 C25.03667615 33.45493534 25.86073078 32.27853844 27 30 C27.15348643 26.46981203 27.04145246 23.38472048 26 20 C29.8665284 23.222107 30.88059018 26.14922412 32 31 C32.26932521 26.34947128 32.26932521 26.34947128 31 22 C32.07314453 22.48533203 32.07314453 22.48533203 33.16796875 22.98046875 C38.99546288 25.07836664 45.57812967 24.74367824 51.4375 22.8125 C55.11126976 20.94338907 56.66636777 19.32093818 59 16 C59.66 16 60.32 16 61 16 C60.67 20.62 60.34 25.24 60 30 C60.66 30.33 61.32 30.66 62 31 C62.33 24.4 62.66 17.8 63 11 C63.66 11 64.32 11 65 11 C66.54927473 15.59978466 66.01430174 20.46287764 65.87304688 25.24414062 C65.81267383 29.06895075 65.8222398 30.73335971 68 34 C72.2284269 34.75507623 74.6068772 34.83447121 78.328125 32.60546875 C79.98412217 31.37949665 81.62956274 30.13917014 83.265625 28.88671875 C87.8110862 25.75035052 92.86908588 23.96468547 98 22 C98.99 21.505 98.99 21.505 100 21 C100.65213292 18.97536745 100.65213292 18.97536745 101 17 C100.37351562 16.84144531 99.74703125 16.68289062 99.1015625 16.51953125 C92.39863035 14.60591813 92.39863035 14.60591813 90.4375 11.625 C90.00310936 9.01865617 89.84933156 6.63669769 90 4 C90.66 3.67 91.32 3.34 92 3 C92.165 4.03125 92.33 5.0625 92.5 6.125 C93.710157 10.57120646 96.54212349 12.10225124 100.22265625 14.578125 C102 16 102 16 103 18.875 C103 19.57625 103 20.2775 103 21 C99.2127543 24.02173859 95.555459 26.86773082 91.125 28.875 C87.58617668 30.50563428 84.94950886 32.64839681 82 35.1875 C77.46797939 38.92016115 74.8782484 40.19594161 69 40 C65.625 39.375 65.625 39.375 63 38 C61.8359375 35.4140625 61.8359375 35.4140625 61 33 C56.47824261 33.05207226 51.95836625 33.14720225 47.4375 33.25 C45.52227539 33.27126953 45.52227539 33.27126953 43.56835938 33.29296875 C36.52565009 33.47589626 31.70649561 33.74213792 26 38 C22.67798824 40.21467451 21.39017727 40.19633189 17.5546875 39.61328125 C13.13497981 38.55228109 8.9397107 36.85952814 4.6875 35.26953125 C0.06969137 33.67971366 -4.57268453 32.63705601 -9.35546875 31.67578125 C-12 31 -12 31 -15 29 C-14.9278125 28.154375 -14.855625 27.30875 -14.78125 26.4375 C-14.27656954 20.26918322 -13.87865498 14.18859588 -14 8 C-11.1907758 6.76063638 -8.95217835 5.99521783 -5.875 5.6875 C-2.77623811 5.27452622 -2.77623811 5.27452622 -1.125 2.4375 C-0.75375 1.633125 -0.3825 0.82875 0 0 Z " fill="#050402" transform="translate(31,104)"/>
<path d="M0 0 C3.4375 1.125 3.4375 1.125 5.375 3.25 C6.64704794 6.69201208 6.65171084 9.48341574 6.4375 13.125 C5.1175 13.455 3.7975 13.785 2.4375 14.125 C2.4375 13.135 2.4375 12.145 2.4375 11.125 C1.7775 11.125 1.1175 11.125 0.4375 11.125 C0.4375 10.135 0.4375 9.145 0.4375 8.125 C-0.2225 8.125 -0.8825 8.125 -1.5625 8.125 C-1.5625 7.465 -1.5625 6.805 -1.5625 6.125 C-2.2225 6.125 -2.8825 6.125 -3.5625 6.125 C-3.5625 8.105 -3.5625 10.085 -3.5625 12.125 C-0.2625 13.775 3.0375 15.425 6.4375 17.125 C6.1075 20.095 5.7775 23.065 5.4375 26.125 C4.633125 26.0425 3.82875 25.96 3 25.875 C-0.46180556 26.11793372 -1.98019045 26.68276613 -5 28.1875 C-9.2156 30.19560676 -11.97451824 30.52948421 -16.5625 29.125 C-17.2225 28.135 -17.8825 27.145 -18.5625 26.125 C-14.2725 25.465 -9.9825 24.805 -5.5625 24.125 C-9.6399742 25.14436855 -13.39583714 25.76031295 -17.5625 25.125 C-20.5625 23.125 -20.5625 23.125 -22.5625 21.125 C-22.376875 20.17625 -22.19125 19.2275 -22 18.25 C-21.27563368 15.22631207 -21.27563368 15.22631207 -22.5625 13.125 C-22.765625 11.06640625 -22.765625 11.06640625 -22.8125 8.6875 C-22.85117187 7.51380859 -22.85117187 7.51380859 -22.890625 6.31640625 C-22.5625 4.125 -22.5625 4.125 -21.20703125 2.3359375 C-19.5625 1.125 -19.5625 1.125 -17 1.1875 C-14.5625 2.125 -14.5625 2.125 -13.25 3.875 C-12.47844573 6.40008669 -12.41660516 8.49889293 -12.5625 11.125 C-10.9125 11.125 -9.2625 11.125 -7.5625 11.125 C-7.68625 9.7946875 -7.68625 9.7946875 -7.8125 8.4375 C-7.5625 5.125 -7.5625 5.125 -6 2.1875 C-3.5625 0.125 -3.5625 0.125 0 0 Z " fill="#E6C630" transform="translate(80.5625,24.875)"/>
<path d="M0 0 C3.4375 1.125 3.4375 1.125 5.375 3.25 C6.64704794 6.69201208 6.65171084 9.48341574 6.4375 13.125 C5.1175 13.455 3.7975 13.785 2.4375 14.125 C2.4375 13.135 2.4375 12.145 2.4375 11.125 C1.7775 11.125 1.1175 11.125 0.4375 11.125 C0.4375 10.135 0.4375 9.145 0.4375 8.125 C-0.2225 8.125 -0.8825 8.125 -1.5625 8.125 C-1.5625 7.465 -1.5625 6.805 -1.5625 6.125 C-2.2225 6.125 -2.8825 6.125 -3.5625 6.125 C-3.8925 8.435 -4.2225 10.745 -4.5625 13.125 C-5.5525 12.795 -6.5425 12.465 -7.5625 12.125 C-7.87508994 8.13947826 -7.86582702 5.70738789 -6 2.125 C-3.5625 0.125 -3.5625 0.125 0 0 Z " fill="#E3E2E2" transform="translate(80.5625,24.875)"/>
<path d="M0 0 C6.00643833 2.44417837 8.82189169 8.37603149 11.375 14.0625 C12.36387148 18.71019595 12.51398177 23.11540019 11.25 27.75 C11.1675 28.4925 11.085 29.235 11 30 C12.83358335 32.33454661 12.83358335 32.33454661 15 34 C13.20793453 33.85915204 11.41635083 33.71216299 9.625 33.5625 C8.62726563 33.48128906 7.62953125 33.40007812 6.6015625 33.31640625 C4 33 4 33 2 32 C2.33 31.34 2.66 30.68 3 30 C5.5625 29.375 5.5625 29.375 8 29 C9.15024437 18.00877602 6.36099832 11.21783165 1 2 C0.67 1.34 0.34 0.68 0 0 Z " fill="#D1D1D1" transform="translate(98,65)"/>
<path d="M0 0 C2.375 0.75 2.375 0.75 3.375 1.75 C3.51615161 4.42058851 3.41747107 7.07432238 3.375 9.75 C2.055 9.75 0.735 9.75 -0.625 9.75 C-0.74875 9.110625 -0.8725 8.47125 -1 7.8125 C-1.20625 7.131875 -1.4125 6.45125 -1.625 5.75 C-2.285 5.42 -2.945 5.09 -3.625 4.75 C-2.965 7.39 -2.305 10.03 -1.625 12.75 C-2.945 12.42 -4.265 12.09 -5.625 11.75 C-5.70631463 10.31344146 -5.76433559 8.8755517 -5.8125 7.4375 C-5.84730469 6.63699219 -5.88210937 5.83648437 -5.91796875 5.01171875 C-5.625 2.75 -5.625 2.75 -4.27734375 0.94140625 C-2.625 -0.25 -2.625 -0.25 0 0 Z " fill="#DDDDDC" transform="translate(63.625,26.25)"/>
<path d="M0 0 C-0.99 0.66 -1.98 1.32 -3 2 C-2.67 2.66 -2.34 3.32 -2 4 C-7.57044492 6.94311489 -11.64892902 8.9442054 -18 7 C-18.66 6.01 -19.32 5.02 -20 4 C-19.07316406 3.87882812 -18.14632812 3.75765625 -17.19140625 3.6328125 C-15.99386719 3.46523438 -14.79632813 3.29765625 -13.5625 3.125 C-12.36753906 2.96257813 -11.17257813 2.80015625 -9.94140625 2.6328125 C-8.97074219 2.42398438 -8.00007813 2.21515625 -7 2 C-6.67 1.34 -6.34 0.68 -6 0 C-3 -1 -3 -1 0 0 Z " fill="#DCBC29" transform="translate(82,47)"/>
<path d="M0 0 C0.66 0 1.32 0 2 0 C2 0.66 2 1.32 2 2 C2.66 2 3.32 2 4 2 C4 2.99 4 3.98 4 5 C4.66 5 5.32 5 6 5 C6 5.99 6 6.98 6 8 C6.99 8.33 7.98 8.66 9 9 C7.375 9.75 7.375 9.75 5 10 C1.75 8.0625 1.75 8.0625 -1 6 C-0.67 4.02 -0.34 2.04 0 0 Z " fill="#171611" transform="translate(77,31)"/>
<path d="M0 0 C0.33 0 0.66 0 1 0 C1.03867188 1.01320313 1.03867188 1.01320313 1.078125 2.046875 C1.34321728 7.75763932 1.34321728 7.75763932 4.0625 12.625 C4.701875 13.07875 5.34125 13.5325 6 14 C4.20793453 13.85915204 2.41635083 13.71216299 0.625 13.5625 C-0.37273437 13.48128906 -1.37046875 13.40007812 -2.3984375 13.31640625 C-5 13 -5 13 -7 12 C-6.67 11.34 -6.34 10.68 -6 10 C-3.4375 9.375 -3.4375 9.375 -1 9 C-0.67 6.03 -0.34 3.06 0 0 Z " fill="#BABABA" transform="translate(107,85)"/>
<path d="M0 0 C2 2 2 2 2.1875 5.3125 C2.03317813 8.34749675 1.71340141 11.05721919 1 14 C0.01 13.67 -0.98 13.34 -2 13 C-1.85769192 11.58297487 -1.71099254 10.1663904 -1.5625 8.75 C-1.48128906 7.96109375 -1.40007812 7.1721875 -1.31640625 6.359375 C-1.02365007 4.17635361 -0.57935581 2.1226818 0 0 Z " fill="#CECECE" transform="translate(92,121)"/>
<path d="M0 0 C1 3 1 3 0.8125 6.375 C1.03199399 10.61855041 2.0972527 12.00654185 5 15 C3.68 15.33 2.36 15.66 1 16 C-2.36889008 11.50814656 -2.43762929 8.4266032 -2 3 C-1.34 2.01 -0.68 1.02 0 0 Z " fill="#B9B9B9" transform="translate(41,84)"/>
<path d="M0 0 C1.32 0.33 2.64 0.66 4 1 C3.34 1 2.68 1 2 1 C2.33 1.66 2.66 2.32 3 3 C3.66 2.67 4.32 2.34 5 2 C4.625 4.4375 4.625 4.4375 4 7 C3.01 7.495 3.01 7.495 2 8 C-0.1519437 4.77208445 -0.20086443 3.71599191 0 0 Z " fill="#1B1A15" transform="translate(60,31)"/>
<path d="M0 0 C2 1 2 1 3 3 C3.04022391 5.3329866 3.04320247 7.66706666 3 10 C2.01 10.495 2.01 10.495 1 11 C0.67 7.37 0.34 3.74 0 0 Z " fill="#D6D6D6" transform="translate(61,125)"/>
<path d="M0 0 C2.475 0.99 2.475 0.99 5 2 C5 3.32 5 4.64 5 6 C3.68 5.67 2.36 5.34 1 5 C0.67 3.35 0.34 1.7 0 0 Z " fill="#DBDBDB" transform="translate(91,47)"/>
<path d="M0 0 C-0.99 0.66 -1.98 1.32 -3 2 C-2.67 2.66 -2.34 3.32 -2 4 C-3.32 4.33 -4.64 4.66 -6 5 C-6 3.35 -6 1.7 -6 0 C-3 -1 -3 -1 0 0 Z " fill="#B69B21" transform="translate(82,47)"/>
<path d="M0 0 C1.9375 0.375 1.9375 0.375 4 1 C4.33 1.66 4.66 2.32 5 3 C3.02 3.66 1.04 4.32 -1 5 C-0.67 3.35 -0.34 1.7 0 0 Z " fill="#E2E2E2" transform="translate(82,14)"/>
</svg>
