<?xml version="1.0" encoding="UTF-8"?>
<svg version="1.1" xmlns="http://www.w3.org/2000/svg" width="150" height="150">
<path d="M0 0 C1.38899808 -0.00135235 2.7779957 -0.00329757 4.16699219 -0.00579834 C7.0579892 -0.00872288 9.94886142 -0.0045391 12.83984375 0.00488281 C16.51082296 0.01627579 20.18150951 0.00970182 23.85247803 -0.00226212 C26.71470266 -0.00955358 29.57686004 -0.00715972 32.43908691 -0.00200653 C34.43953648 -0.00005887 36.43998887 -0.00603993 38.44042969 -0.01226807 C51.49095725 0.05399224 63.10448856 0.75728887 73.09765625 9.96875 C79.6730306 17.14188565 81.36061192 25.00637 81.41113281 34.55932617 C81.41609772 35.27551117 81.42106262 35.99169617 81.42617798 36.72958374 C81.44073211 39.08926369 81.44759131 41.44887636 81.453125 43.80859375 C81.45736607 45.02415671 81.45736607 45.02415671 81.46169281 46.2642765 C81.47666051 50.55517526 81.48590444 54.84604062 81.49023438 59.13696289 C81.49570653 63.54711615 81.51971481 67.95695874 81.54820633 72.36701488 C81.56692813 75.77731691 81.57204342 79.18754562 81.57357025 82.59789467 C81.57657727 84.22243251 81.58453902 85.84696967 81.59775543 87.47145653 C81.68333465 98.80166205 81.53018688 109.25900231 74.0546875 118.4453125 C63.65708167 128.9329409 51.28917486 129.35312567 37.32818604 129.43022156 C36.11129089 129.43133438 34.89439575 129.4324472 33.640625 129.43359375 C31.71401031 129.43858635 31.71401031 129.43858635 29.74847412 129.44367981 C27.04226846 129.44962763 24.33609453 129.45152425 21.62988281 129.45092773 C18.20343705 129.45082642 14.77719991 129.46446654 11.35080338 129.48169994 C8.03074188 129.49565462 4.71071529 129.49491281 1.390625 129.49609375 C-0.42257233 129.50687202 -0.42257233 129.50687202 -2.2723999 129.51786804 C-15.8235651 129.48217018 -28.65110023 129.14978122 -38.8125 119.2578125 C-47.36500995 109.31551968 -47.21534683 97.15305332 -47.18359375 84.6796875 C-47.18816768 83.08987203 -47.19347681 81.50005853 -47.19947815 79.9102478 C-47.20836165 76.59372884 -47.20604141 73.27745128 -47.19604492 69.9609375 C-47.18456817 65.74612625 -47.20477083 61.53215452 -47.23396206 57.31745338 C-47.25245802 54.03824722 -47.2520051 50.75923724 -47.24632454 47.47999191 C-47.24617292 45.92771605 -47.25208293 44.3754255 -47.26461601 42.82320023 C-47.34306201 31.51700877 -46.8240557 20.03124023 -39.5625 10.765625 C-28.66200197 -0.18106158 -14.60966079 -0.04548547 0 0 Z " fill="#1C99F4" transform="translate(57.75,11.734375)"/>
<path d="M0 0 C5.22862331 -0.09968046 10.45668044 -0.17184747 15.68603516 -0.21972656 C17.46087289 -0.23970839 19.23564594 -0.26690355 21.01025391 -0.30175781 C32.52659864 -0.52210431 41.42242492 -0.34368165 51.3125 6.1875 C57.93361075 13.11656939 60.13009985 20.03547042 60.20874023 29.42382812 C60.21852402 30.16591522 60.2283078 30.90800232 60.23838806 31.6725769 C60.26826525 34.12544998 60.28971314 36.57826849 60.30859375 39.03125 C60.31516558 39.87314377 60.3217374 40.71503754 60.32850838 41.58244324 C60.36107786 46.04420288 60.38552749 50.505939 60.4050293 54.96777344 C60.42278957 58.64196005 60.45752724 62.31537153 60.50756836 65.98925781 C60.56813279 70.4419561 60.59855475 74.89394013 60.60820198 79.34703064 C60.61670079 81.03417784 60.63537924 82.72130886 60.6649456 84.40821838 C60.85127404 95.64997277 60.11254698 105.17754657 52.19334412 114.01647949 C45.64420205 120.224987 37.65526637 122.14115895 28.82421875 122.09765625 C27.08881836 122.09282227 27.08881836 122.09282227 25.31835938 122.08789062 C24.12017578 122.07951172 22.92199219 122.07113281 21.6875 122.0625 C20.46998047 122.05798828 19.25246094 122.05347656 17.99804688 122.04882812 C14.99864774 122.03706578 11.99934911 122.02062826 9 122 C8.32391731 119.14777615 7.65894885 116.29368707 7 113.4375 C6.80921875 112.63763672 6.6184375 111.83777344 6.421875 111.01367188 C5.32538878 106.21654468 4.78867803 101.91983966 5 97 C5.75023438 96.84144531 6.50046875 96.68289062 7.2734375 96.51953125 C16.56605259 94.40118952 25.84079848 91.74867288 32 84 C32.86119134 81.82653432 32.86119134 81.82653432 33 80 C29.85655565 80.73452228 29.85655565 80.73452228 28.23046875 83.328125 C25.55704498 86.53061511 23.03774661 87.89762215 19.3125 89.75 C17.57419922 90.63945312 17.57419922 90.63945312 15.80078125 91.546875 C12 93 12 93 3 94 C3 86.41 3 78.82 3 71 C-2.54973121 71.03957481 -2.54973121 71.03957481 -8.09936523 71.09008789 C-10.06645974 71.09723091 -12.03353621 71.05031893 -14 71 C-15.87704278 69.12295722 -15.21815861 66.07000952 -15.25 63.5625 C-15.22848139 50.80196253 -12.62924045 38.61753794 -9.1875 26.375 C-8.96368652 25.57755371 -8.73987305 24.78010742 -8.50927734 23.95849609 C-6.11390068 15.81552172 -3.03304175 7.92156237 0 0 Z " fill="#DFE4E9" transform="translate(76,14)"/>
<path d="M0 0 C1.38899808 -0.00135235 2.7779957 -0.00329757 4.16699219 -0.00579834 C7.0579892 -0.00872288 9.94886142 -0.0045391 12.83984375 0.00488281 C16.51082296 0.01627579 20.18150951 0.00970182 23.85247803 -0.00226212 C26.71470266 -0.00955358 29.57686004 -0.00715972 32.43908691 -0.00200653 C34.43953648 -0.00005887 36.43998887 -0.00603993 38.44042969 -0.01226807 C51.49095725 0.05399224 63.10448856 0.75728887 73.09765625 9.96875 C79.6730306 17.14188565 81.36061192 25.00637 81.41113281 34.55932617 C81.41609772 35.27551117 81.42106262 35.99169617 81.42617798 36.72958374 C81.44073211 39.08926369 81.44759131 41.44887636 81.453125 43.80859375 C81.45736607 45.02415671 81.45736607 45.02415671 81.46169281 46.2642765 C81.47666051 50.55517526 81.48590444 54.84604062 81.49023438 59.13696289 C81.49570653 63.54711615 81.51971481 67.95695874 81.54820633 72.36701488 C81.56692813 75.77731691 81.57204342 79.18754562 81.57357025 82.59789467 C81.57657727 84.22243251 81.58453902 85.84696967 81.59775543 87.47145653 C81.68333465 98.80166205 81.53018688 109.25900231 74.0546875 118.4453125 C63.65708167 128.9329409 51.28917486 129.35312567 37.32818604 129.43022156 C36.11129089 129.43133438 34.89439575 129.4324472 33.640625 129.43359375 C31.71401031 129.43858635 31.71401031 129.43858635 29.74847412 129.44367981 C27.04226846 129.44962763 24.33609453 129.45152425 21.62988281 129.45092773 C18.20343705 129.45082642 14.77719991 129.46446654 11.35080338 129.48169994 C8.03074188 129.49565462 4.71071529 129.49491281 1.390625 129.49609375 C-0.42257233 129.50687202 -0.42257233 129.50687202 -2.2723999 129.51786804 C-15.8235651 129.48217018 -28.65110023 129.14978122 -38.8125 119.2578125 C-47.36500995 109.31551968 -47.21534683 97.15305332 -47.18359375 84.6796875 C-47.18816768 83.08987203 -47.19347681 81.50005853 -47.19947815 79.9102478 C-47.20836165 76.59372884 -47.20604141 73.27745128 -47.19604492 69.9609375 C-47.18456817 65.74612625 -47.20477083 61.53215452 -47.23396206 57.31745338 C-47.25245802 54.03824722 -47.2520051 50.75923724 -47.24632454 47.47999191 C-47.24617292 45.92771605 -47.25208293 44.3754255 -47.26461601 42.82320023 C-47.34306201 31.51700877 -46.8240557 20.03124023 -39.5625 10.765625 C-28.66200197 -0.18106158 -14.60966079 -0.04548547 0 0 Z M-37.75 11.265625 C-42.25923855 18.10300302 -43.89224425 23.43578294 -43.94287109 31.59765625 C-43.95104858 32.32998978 -43.95922607 33.0623233 -43.96765137 33.81684875 C-43.99243104 36.23726607 -44.0090081 38.65762475 -44.0234375 41.078125 C-44.02876118 41.90898621 -44.03408485 42.73984741 -44.03956985 43.59588623 C-44.06627754 47.99929886 -44.0856544 52.40268347 -44.10009766 56.80615234 C-44.1133963 60.43173682 -44.14117624 64.05675306 -44.18212891 67.68212891 C-44.23175632 72.07644652 -44.25625582 76.47025183 -44.26332474 80.86483765 C-44.26999024 82.52962847 -44.28508784 84.19440999 -44.30921555 85.85903931 C-44.4582794 96.7715705 -44.23153661 107.21529462 -36.46688843 115.78564453 C-28.69520147 123.16501873 -21.14168518 124.36752539 -10.59643555 124.42675781 C-9.58024139 124.43420517 -9.58024139 124.43420517 -8.54351807 124.44180298 C-6.32457425 124.45628791 -4.10570188 124.46320315 -1.88671875 124.46875 C-1.12230783 124.47157738 -0.35789692 124.47440475 0.42967796 124.47731781 C4.47419956 124.49225402 8.518686 124.50151891 12.56323242 124.50585938 C16.71550545 124.51133918 20.8674498 124.53537274 25.01961994 124.56383133 C28.23604747 124.58255832 31.45239733 124.5876686 34.66887474 124.58919525 C36.1985167 124.5921991 37.72815805 124.60014979 39.25774574 124.61338043 C50.18623705 124.70117362 60.41606239 124.45603933 69.25 117.265625 C78.6087596 107.68403779 78.8523087 97.4205149 78.78125 84.67578125 C78.78394964 82.96381918 78.78783597 81.2518586 78.79284668 79.53990173 C78.79872117 75.96338203 78.79024649 72.38726379 78.77148438 68.81079102 C78.74871317 64.25034844 78.76181899 59.69084866 78.78577423 55.13044071 C78.80030283 51.59827205 78.79559379 48.06632292 78.78526306 44.53414726 C78.78261433 42.85380374 78.78579952 41.17343961 78.79518127 39.49312019 C78.84201226 28.74880349 78.13163291 20.14352626 72.0625 10.953125 C65.11826986 4.31752732 58.20414033 2.12480641 48.79443359 2.08862305 C48.04913391 2.08205185 47.30383423 2.07548065 46.53594971 2.06871033 C44.07344449 2.04902876 41.61100023 2.03732406 39.1484375 2.02734375 C38.30404743 2.02326822 37.45965736 2.0191927 36.58967972 2.01499367 C32.11724342 1.99415131 27.6448376 1.97984365 23.17236328 1.97045898 C18.57264815 1.95941951 13.9734201 1.92504304 9.37387657 1.88528728 C5.82031408 1.8590284 2.26686583 1.85075879 -1.28678513 1.84717751 C-2.98111624 1.84233271 -4.67544299 1.83077944 -6.3696785 1.81213951 C-18.27318834 1.68935387 -29.00474394 2.11361284 -37.75 11.265625 Z " fill="#010102" transform="translate(57.75,11.734375)"/>
<path d="M0 0 C2.85629596 1.30113265 4.92210213 2.71588005 7.1875 4.875 C17.75897765 14.19339302 30.9076053 13.74231497 44.22216797 13.23095703 C52.84981094 12.51362971 60.45161711 8.52974555 67 3 C67.66 2.01 68.32 1.02 69 0 C69.99 0 70.98 0 72 0 C71.92037294 2.70732002 71.46129431 4.47568002 69.65625 6.52734375 C59.15073487 15.91067885 46.87851088 18.25081974 33.125 18.3125 C32.22112549 18.31797852 31.31725098 18.32345703 30.38598633 18.32910156 C25.51760173 18.2766415 21.5710187 17.84756744 17 16 C15.98292969 15.70029297 15.98292969 15.70029297 14.9453125 15.39453125 C9.22918138 13.56684126 5.04129689 10.41835569 1 6 C-0.5 3.0625 -0.5 3.0625 -1 1 C-0.67 0.67 -0.34 0.34 0 0 Z " fill="#343A44" transform="translate(37,94)"/>
<path d="M0 0 C0.99 0.33 1.98 0.66 3 1 C3 1.66 3 2.32 3 3 C3.54140625 3.268125 4.0828125 3.53625 4.640625 3.8125 C6.34681952 4.67124691 8.04365892 5.54866641 9.734375 6.4375 C15.45800954 9.40311375 20.66099271 11.78096014 27 13 C27 13.33 27 13.66 27 14 C32.61 14.33 38.22 14.66 44 15 C44 15.33 44 15.66 44 16 C40.62507371 16.05845196 37.25027913 16.09374742 33.875 16.125 C32.44800781 16.15013672 32.44800781 16.15013672 30.9921875 16.17578125 C25.89073202 16.21120802 21.78196259 15.99005455 17 14 C15.98292969 13.70029297 15.98292969 13.70029297 14.9453125 13.39453125 C9.31921278 11.59562812 4.86709359 8.48428559 1 4 C0.27734375 1.77734375 0.27734375 1.77734375 0 0 Z " fill="#525866" transform="translate(37,96)"/>
<path d="M0 0 C1.98 0.495 1.98 0.495 4 1 C4 4.3 4 7.6 4 11 C2.68 11.33 1.36 11.66 0 12 C-1 11 -1 11 -1.1328125 8.75 C-1.13023438 7.8425 -1.12765625 6.935 -1.125 6 C-1.12757812 5.0925 -1.13015625 4.185 -1.1328125 3.25 C-1 1 -1 1 0 0 Z " fill="#484848" transform="translate(98,50)"/>
<path d="M0 0 C1.32 0 2.64 0 4 0 C4 3.96 4 7.92 4 12 C2.68 12 1.36 12 0 12 C0 8.04 0 4.08 0 0 Z " fill="#3E4346" transform="translate(44,50)"/>
<path d="M0 0 C0.66 0.33 1.32 0.66 2 1 C1.32453125 1.42410156 0.6490625 1.84820313 -0.046875 2.28515625 C-5.67814505 5.98779768 -9.22478146 8.81883143 -12 15 C-12.66 14.67 -13.32 14.34 -14 14 C-12.64527694 8.41176736 -8.41886827 5.30998246 -4 2 C-1.8671875 0.73046875 -1.8671875 0.73046875 0 0 Z " fill="#000A0D" transform="translate(29,15)"/>
<path d="M0 0 C0.99 0 1.98 0 3 0 C2.91563067 2.86855713 2.41307819 4.55682315 0.4453125 6.66796875 C-4.51440024 11 -4.51440024 11 -7 11 C-7 10.34 -7 9.68 -7 9 C-5.47165147 7.76431395 -3.94234618 6.52972509 -2.40234375 5.30859375 C-0.65976986 3.68251505 -0.17525656 2.36596356 0 0 Z " fill="#4E4F50" transform="translate(106,94)"/>
<path d="M0 0 C4.42761914 1.39153744 6.9556255 3.52071486 10 7 C10 7.66 10 8.32 10 9 C5.28645804 7.42881935 2.70787591 4.06181386 0 0 Z " fill="#090909" transform="translate(123,17)"/>
<path d="M0 0 C0.66 0.33 1.32 0.66 2 1 C-0.31 3.31 -2.62 5.62 -5 8 C-5.33 7.34 -5.66 6.68 -6 6 C-4 4 -2 2 0 0 Z " fill="#15B3DD" transform="translate(25,19)"/>
<path d="M0 0 C0.99 0.33 1.98 0.66 3 1 C3 1.66 3 2.32 3 3 C3.66 3 4.32 3 5 3 C4.67 4.32 4.34 5.64 4 7 C0 2.25 0 2.25 0 0 Z " fill="#4A4D54" transform="translate(37,96)"/>
</svg>
