<?xml version="1.0" encoding="UTF-8"?>
<svg version="1.1" xmlns="http://www.w3.org/2000/svg" width="150" height="150">
<path d="M0 0 C8.04689744 3.35921263 15.05374531 8.68992093 21 15 C23.79636764 13.71403484 25.92508766 12.32806763 28.1875 10.25 C37.04783092 2.46132897 44.35007655 -0.77486149 56.15625 -0.46484375 C59.92652598 -0.00888558 61.31959025 0.18385224 63.8125 2.9375 C68.36461114 10.81611462 69.44713206 18.1185291 69.25 27.125 C69.24484375 28.07503906 69.2396875 29.02507813 69.234375 30.00390625 C69.17787912 35.0955975 68.86193749 39.98129943 68 45 C68.56920166 45.29656494 69.13840332 45.59312988 69.72485352 45.89868164 C72.34461484 47.27334466 74.95340706 48.66770189 77.5625 50.0625 C78.45775391 50.52849609 79.35300781 50.99449219 80.27539062 51.47460938 C87.21661942 55.21219411 93.85804166 59.46167541 97 67 C98.66642947 81.80558492 98.66642947 81.80558492 94.5 87.625 C92.8125 89.41015625 92.8125 89.41015625 91 91 C90.443125 91.51433594 89.88625 92.02867188 89.3125 92.55859375 C83.30409252 97.54401806 76.00675991 100.67375723 69 104 C69.0407666 104.63389648 69.0815332 105.26779297 69.12353516 105.92089844 C71.04293042 137.09550112 71.04293042 137.09550112 63 147 C62.60039063 147.54914063 62.20078125 148.09828125 61.7890625 148.6640625 C57.59997797 151.79215619 51.2699989 151.05885005 46.2578125 150.5 C37.3004571 148.5163642 29.15194394 141.52835351 23 135 C20.20363236 136.28596516 18.07491234 137.67193237 15.8125 139.75 C7.02182187 147.47744276 -0.34745799 150.84965366 -12.0859375 150.5390625 C-16.21423108 149.97049512 -17.62297449 149.47058343 -20.375 146.4375 C-25.55666313 139.33003159 -25.31178996 131.42403169 -25.25 123 C-25.25773437 121.94554688 -25.26546875 120.89109375 -25.2734375 119.8046875 C-25.25925408 114.14550255 -24.91130955 109.33953144 -23 104 C-23.83660156 103.92007813 -24.67320313 103.84015625 -25.53515625 103.7578125 C-29.75222451 102.83547739 -32.79491499 101.12449318 -36.4375 98.875 C-37.42882935 98.2703894 -37.42882935 98.2703894 -38.44018555 97.65356445 C-44.35743895 93.94951752 -50.48396659 89.78636534 -53 83 C-53.21803697 80.30710184 -53.32476002 77.75234877 -53.3125 75.0625 C-53.32861328 74.35931641 -53.34472656 73.65613281 -53.36132812 72.93164062 C-53.36558143 68.39336929 -52.72053861 65.62738481 -50 62 C-49.57203125 61.42636719 -49.1440625 60.85273437 -48.703125 60.26171875 C-44.79099662 56.02357968 -40.41177488 53.3230982 -35.375 50.625 C-34.40675293 50.10619263 -34.40675293 50.10619263 -33.41894531 49.5769043 C-29.97732086 47.80600145 -26.84577009 46.5157163 -23 46 C-23.32355469 44.91589844 -23.64710937 43.83179688 -23.98046875 42.71484375 C-25.31820547 37.33905825 -25.33046217 32.0768857 -25.3125 26.5625 C-25.32861328 25.57701172 -25.34472656 24.59152344 -25.36132812 23.57617188 C-25.36646663 15.82216638 -24.21464605 8.96047419 -19.8125 2.4375 C-14.59256137 -2.11222429 -6.3727877 -1.58157803 0 0 Z M-12.6875 10.125 C-16.03512144 14.90731634 -16.32550848 20.14936394 -16.25 25.8125 C-16.24613281 26.51375 -16.24226563 27.215 -16.23828125 27.9375 C-16.15024157 33.22966311 -15.44948863 37.9267898 -14 43 C-12.12475253 42.85738409 -10.24981036 42.71075143 -8.375 42.5625 C-7.33085938 42.48128906 -6.28671875 42.40007813 -5.2109375 42.31640625 C-3.62152344 42.15978516 -3.62152344 42.15978516 -2 42 C-0.9996875 41.9896875 0.000625 41.979375 1.03125 41.96875 C5.67954792 40.45193699 7.35092642 36.95338337 9.875 32.9375 C10.62136719 31.79958008 10.62136719 31.79958008 11.3828125 30.63867188 C12.60557752 28.76925227 13.81003951 26.8904044 15 25 C11.84502929 18.13960539 4.58992008 12.7022011 -2.375 9.9375 C-7.72314315 8.37403354 -7.72314315 8.37403354 -12.6875 10.125 Z M29 23 C29.65588176 24.33867148 30.3265437 25.67008315 31 27 C31.56332031 28.11632812 32.12664062 29.23265625 32.70703125 30.3828125 C36.62021067 37.78759022 36.62021067 37.78759022 43.30859375 42.359375 C46.6038551 42.85310315 49.67135047 43.06036411 53 43 C53.95390625 43.00257812 54.9078125 43.00515625 55.890625 43.0078125 C56.58671875 43.00523438 57.2828125 43.00265625 58 43 C60.89171239 34.32486283 61.77705685 22.86115755 58.625 14.125 C57.19761746 10.99686321 57.19761746 10.99686321 55 9 C44.57446438 7.17553127 35.78203518 16.3766933 29 23 Z M21 32 C19.68 34.31 18.36 36.62 17 39 C20.3 39 23.6 39 27 39 C25.02 35.535 25.02 35.535 23 32 C22.34 32 21.68 32 21 32 Z M6.40673828 53.02783203 C4.95768 55.71682254 3.52054909 58.40774039 2.125 61.125 C1.61453125 62.05054688 1.1040625 62.97609375 0.578125 63.9296875 C-1.93210857 68.73305336 -3.86442238 72.60858981 -2.6796875 78.04785156 C-1.35537538 81.8514434 0.46283768 85.31125992 2.4375 88.8125 C2.84548828 89.56208984 3.25347656 90.31167969 3.67382812 91.08398438 C6.4017552 97.00993403 6.4017552 97.00993403 11.1640625 100.67578125 C14.58492044 101.06687107 17.93129432 101.17003699 21.375 101.1875 C22.64085938 101.20167969 23.90671875 101.21585938 25.2109375 101.23046875 C29.34517806 100.97900463 32.22423801 100.75177795 36 99 C38.27440769 96.18779201 39.80187424 93.11926558 41.375 89.875 C41.81199219 89.04484375 42.24898437 88.2146875 42.69921875 87.359375 C46.42438274 80.03096721 46.42438274 80.03096721 47 72 C45.66765633 68.15418815 43.83739804 64.68308533 41.875 61.125 C41.14410156 59.701875 41.14410156 59.701875 40.3984375 58.25 C37.89262523 53.15376045 37.89262523 53.15376045 33.58251953 49.73486328 C31.17158332 49.04882452 29.24402807 48.7424575 26.75 48.734375 C25.9765625 48.73179688 25.203125 48.72921875 24.40625 48.7265625 C23.6121875 48.73429687 22.818125 48.74203125 22 48.75 C21.2059375 48.74226563 20.411875 48.73453125 19.59375 48.7265625 C18.8203125 48.72914062 18.046875 48.73171875 17.25 48.734375 C16.55390625 48.73663086 15.8578125 48.73888672 15.140625 48.74121094 C11.37569047 49.19636954 8.79209679 49.99185475 6.40673828 53.02783203 Z M46 51 C47.98 54.63 49.96 58.26 52 62 C54.6855594 59.3144406 55.06049974 56.62378672 56 53 C52.38026598 51.68373308 49.90432869 51 46 51 Z M-11 52 C-10.87625 53.27875 -10.7525 54.5575 -10.625 55.875 C-10.55539063 56.59429687 -10.48578125 57.31359375 -10.4140625 58.0546875 C-10.13625251 60.22668245 -10.13625251 60.22668245 -8 62 C-7.16151196 60.54462432 -6.32936066 59.08559627 -5.5 57.625 C-5.0359375 56.81289063 -4.571875 56.00078125 -4.09375 55.1640625 C-2.84964141 53.10663126 -2.84964141 53.10663126 -3 51 C-5.83967231 51 -8.23735711 51.40267181 -11 52 Z M65 56 C64.00192043 58.38120506 63.03783801 60.76717995 62.1171875 63.1796875 C61 66 61 66 59.8203125 68.2578125 C57.30188346 73.86082905 58.2305164 77.56155533 60.30151367 83.11914062 C61.78215145 86.7890914 63.35673387 90.39971765 65 94 C74.05639778 91.38294209 82.25247355 87.39379083 87.76953125 79.453125 C89.62777849 75.74842892 89.26772675 73.93662518 88 70 C82.45957671 62.28455643 74.14625344 58.03012635 65 56 Z M-31.13671875 59.40234375 C-36.68189765 62.49644766 -41.52803748 66.64476084 -45 72 C-45.18745391 76.87380179 -43.85836525 79.56082674 -40.8125 83.1875 C-34.9249695 89.36106437 -29.12951202 91.87925773 -21 94 C-20.00232878 91.61976917 -19.03759298 89.23415152 -18.11328125 86.82421875 C-17 84 -17 84 -15.85546875 81.70703125 C-12.57717581 74.11863206 -15.45056236 67.76066326 -18.2890625 60.46484375 C-18.85367188 59.32144531 -19.41828125 58.17804687 -20 57 C-24.4744838 55.5085054 -27.01120333 57.44067483 -31.13671875 59.40234375 Z M-9 88 C-9.99 91.3 -10.98 94.6 -12 98 C-8.7 98.33 -5.4 98.66 -2 99 C-3.98 95.37 -5.96 91.74 -8 88 C-8.33 88 -8.66 88 -9 88 Z M52 88 C51.18697675 89.45804169 50.37459869 90.91644315 49.5625 92.375 C49.11003906 93.18710938 48.65757813 93.99921875 48.19140625 94.8359375 C47.4349464 96.20996622 46.70145369 97.59709261 46 99 C47.4800841 98.88637738 48.95910074 98.75877092 50.4375 98.625 C51.26121094 98.55539063 52.08492188 98.48578125 52.93359375 98.4140625 C53.61550781 98.27742188 54.29742187 98.14078125 55 98 C56.2537118 96.05649404 56.2537118 96.05649404 55.44140625 94.0546875 C55.15136719 93.33539063 54.86132812 92.61609375 54.5625 91.875 C54.27503906 91.15054688 53.98757812 90.42609375 53.69140625 89.6796875 C53.46324219 89.12539062 53.23507813 88.57109375 53 88 C52.67 88 52.34 88 52 88 Z M-14 107 C-15.59846946 112.64877453 -16.33901657 117.70233856 -16.3125 123.5625 C-16.32861328 124.27857422 -16.34472656 124.99464844 -16.36132812 125.73242188 C-16.3659989 130.86560691 -15.44302293 134.46295742 -13 139 C-9.58508132 141.27661245 -9.13384805 141.19937002 -5.3125 140.4375 C3.47765356 138.42176087 9.50331475 132.99561112 16 127 C15.63648437 126.45472656 15.27296875 125.90945312 14.8984375 125.34765625 C14.14433594 124.21650391 14.14433594 124.21650391 13.375 123.0625 C12.81039062 122.2478125 12.24578125 121.433125 11.6640625 120.59375 C10 118 10 118 8.8984375 115.46875 C7.51573483 112.57165869 6.54725956 110.99835514 4 109 C-1.82518412 107.32241442 -7.97700255 107.19571585 -14 107 Z M37.390625 111.47265625 C35.69968568 114.25223129 34.36341894 117.0500572 33 120 C31.70970693 121.70020568 30.38660152 123.3773812 29 125 C31.55227622 131.43936356 38.42484822 135.99620965 44.29296875 139.28515625 C48.42844016 141.00493643 51.77591091 141.57175408 56 140 C59.16419451 135.96292425 60.12455122 131.96147963 60.1328125 126.91796875 C60.13410156 126.15033203 60.13539062 125.38269531 60.13671875 124.59179688 C60.13091797 123.40166992 60.13091797 123.40166992 60.125 122.1875 C60.12886719 121.40568359 60.13273437 120.62386719 60.13671875 119.81835938 C60.12884953 115.10863263 59.78139148 110.64493824 59 106 C51.82538475 106 42.7548248 106.38951482 37.390625 111.47265625 Z M17 111 C18.32 113.31 19.64 115.62 21 118 C23.99324263 116.9024777 24.84610901 116.32317108 26.25 113.375 C26.62125 112.199375 26.62125 112.199375 27 111 C23.7 111 20.4 111 17 111 Z " fill="#00D8FF" transform="translate(53,0)"/>
<path d="M0 0 C3.99656865 2.59731235 5.86489677 6.00865933 7.25 10.5 C8.25798966 15.86208933 7.09276904 20.09320658 4.44140625 24.8046875 C1.73851646 28.65076674 -1.16200419 29.36722675 -5.625 30.375 C-10.97294799 30.86943293 -14.93541689 28.9712836 -19.0625 25.625 C-22.2911927 21.55923882 -23.22657762 17.84835644 -23.05859375 12.62109375 C-22.39813962 8.08151666 -20.6402384 4.20360726 -17.20703125 1.109375 C-11.71093464 -2.46245895 -5.91251755 -2.82992293 0 0 Z " fill="#00D8FF" transform="translate(82.75,60.5)"/>
</svg>
