<?xml version="1.0" encoding="UTF-8"?>
<svg version="1.1" xmlns="http://www.w3.org/2000/svg" width="150" height="150">
<path d="M0 0 C4.75863272 3.31718281 8.67177018 7.45691715 12.7109375 11.59375 C19.15763123 17.87840834 24.6833255 20.18733097 33.66796875 20.1328125 C38.89576305 19.45396057 42.86442264 17.04258778 46.88671875 13.71484375 C47.70462891 12.62429687 47.70462891 12.62429687 48.5390625 11.51171875 C48.98378906 10.91875 49.42851563 10.32578125 49.88671875 9.71484375 C50.54671875 9.71484375 51.20671875 9.71484375 51.88671875 9.71484375 C48.85012659 21.76246141 43.70726838 29.81754514 33.14453125 36.6015625 C23.18550383 41.51215561 8.33384478 41.65214546 -2.17578125 38.21484375 C-11.51471461 34.04150791 -18.85266152 27.34814556 -25.7265625 19.9140625 C-31.14608944 14.92029218 -36.02577628 14.1646891 -43.1484375 14.3671875 C-50.63958959 15.24559664 -55.7644876 19.7003497 -61.11328125 24.71484375 C-60.72075251 15.88294716 -56.21845189 8.33276828 -49.92578125 2.27734375 C-36.46447015 -8.52275263 -14.61692138 -8.88903352 0 0 Z " fill="#05B6D4" transform="translate(61.11328125,80.28515625)"/>
<path d="M0 0 C1.32572021 0.00241699 1.32572021 0.00241699 2.67822266 0.00488281 C17.72499012 0.2868542 26.53100542 7.57332032 37.25 17.375 C38.53498735 18.52831882 39.82573294 19.67529206 41.125 20.8125 C41.63804688 21.26496094 42.15109375 21.71742187 42.6796875 22.18359375 C48.09962404 26.29573466 53.67071557 26.0524038 60.25 25.375 C66.23844961 23.59765239 70.76373035 19.5808778 75.25 15.375 C74.85747126 24.20689659 70.35517064 31.75707547 64.0625 37.8125 C53.19225363 46.5337685 40.63944099 46.63820696 27.25 45.375 C16.18743162 43.27906496 8.77329608 36.05613269 1.16796875 28.23828125 C-5.22671739 22.02592832 -10.75117853 19.9523405 -19.6015625 20.02734375 C-25.79504393 20.71123934 -30.1622526 23.54298377 -34.1875 28.1875 C-34.703125 28.909375 -35.21875 29.63125 -35.75 30.375 C-36.41 30.375 -37.07 30.375 -37.75 30.375 C-34.71340784 18.32738234 -29.57054963 10.27229861 -19.0078125 3.48828125 C-12.80366841 0.42914446 -6.77905062 -0.01282696 0 0 Z " fill="#05B5D4" transform="translate(74.75,29.625)"/>
</svg>
