<?xml version="1.0" encoding="UTF-8"?>
<svg version="1.1" xmlns="http://www.w3.org/2000/svg" width="150" height="150">
<path d="M0 0 C49.5 0 99 0 150 0 C150 49.5 150 99 150 150 C100.5 150 51 150 0 150 C0 100.5 0 51 0 0 Z " fill="#017ACB" transform="translate(0,0)"/>
<path d="M0 0 C3.61652577 2.26032861 6.13068116 4.72574762 9 7.875 C7.8433323 11.34500311 7.14273284 11.72201459 4.125 13.5625 C3.42632812 13.99949219 2.72765625 14.43648437 2.0078125 14.88671875 C0 15.875 0 15.875 -3 15.875 C-3.5775 15.215 -4.155 14.555 -4.75 13.875 C-6.95489976 11.52309941 -6.95489976 11.52309941 -10.625 11.5 C-14.06832602 11.52686266 -14.06832602 11.52686266 -16 13.875 C-16.83483326 16.74476283 -16.83483326 16.74476283 -16 19.875 C-12.36408968 22.71101005 -8.72651486 24.5323822 -4.5625 26.49609375 C2.27365524 29.73139378 7.65598588 32.42103616 12 38.875 C13.94926781 44.72280342 13.78007493 51.39711492 11.9375 57.25 C7.87003004 62.76076575 3.67881534 66.10207811 -3 67.875 C-12.23341361 68.8496381 -20.40956467 68.61578051 -28 62.875 C-30.61950223 60.40207642 -32.99846334 57.877305 -35 54.875 C-35 54.215 -35 53.555 -35 52.875 C-33.59248779 52.00583113 -32.1735479 51.15514851 -30.75 50.3125 C-29.96109375 49.83683594 -29.1721875 49.36117187 -28.359375 48.87109375 C-26 47.875 -26 47.875 -23.875 48.06640625 C-22 48.875 -22 48.875 -19.25 51.375 C-15.617847 54.5473868 -12.78673035 54.79902015 -8 54.875 C-5.10234628 54.0706805 -5.10234628 54.0706805 -3 52.875 C-2.0636079 49.57554409 -2.0636079 49.57554409 -2 45.875 C-5.72764516 42.14004573 -10.21870358 40.23369188 -14.9375 38.0625 C-22.40026557 34.48669662 -27.71464485 30.85783665 -31 22.875 C-31.66360439 17.33467497 -31.75573895 12.44245856 -29.3125 7.375 C-21.48171609 -1.09071234 -11.29948967 -4.29126687 0 0 Z " fill="#FAFCFE" transform="translate(125,69.125)"/>
<path d="M0 0 C17.49 0 34.98 0 53 0 C53 4.29 53 8.58 53 13 C46.73 13 40.46 13 34 13 C34 31.15 34 49.3 34 68 C29.05 68 24.1 68 19 68 C19 49.85 19 31.7 19 13 C12.73 13 6.46 13 0 13 C0 8.71 0 4.42 0 0 Z " fill="#F2F8FC" transform="translate(33,68)"/>
</svg>
