<?xml version="1.0" encoding="UTF-8"?>
<svg version="1.1" xmlns="http://www.w3.org/2000/svg" width="150" height="150">
<path d="M0 0 C2.87596867 0.87535354 5.45986743 2.11933752 8.125 3.5 C8.8471167 3.85876221 9.5692334 4.21752441 10.31323242 4.5871582 C11.8078581 5.3352049 13.29804579 6.09218378 14.78369141 6.85791016 C16.94387934 7.97108037 19.11672077 9.05536264 21.29296875 10.13671875 C22.63389414 10.81818833 23.97378632 11.50169582 25.3125 12.1875 C26.23603271 12.64962891 26.23603271 12.64962891 27.17822266 13.12109375 C31.1718586 15.22782319 33.65318869 17.13861972 36 21 C36.58995162 24.46671719 36.54645622 27.89268548 36.51757812 31.40234375 C36.5245874 32.44842804 36.53159668 33.49451233 36.53881836 34.57229614 C36.55641293 38.0276347 36.54476978 41.48215321 36.53125 44.9375 C36.53394448 47.33976397 36.53782652 49.74202687 36.54284668 52.14428711 C36.54874374 57.1780028 36.54017169 62.21143451 36.52148438 67.24511719 C36.49869518 73.69832464 36.51181708 80.15086665 36.53577423 86.60404968 C36.55022631 91.5643007 36.54562882 96.52439389 36.53526306 101.48464966 C36.53259417 103.86410602 36.53587121 106.24357671 36.54518127 108.62301636 C36.55533666 111.94828263 36.5398585 115.27247034 36.51757812 118.59765625 C36.52567505 119.58170441 36.53377197 120.56575256 36.54211426 121.57962036 C36.489095 125.84951718 36.4137072 128.3201091 34.15759277 132.02783203 C31.46846055 134.48585863 28.60515261 136.18572487 25.375 137.8125 C24.40614868 138.31136719 24.40614868 138.31136719 23.41772461 138.8203125 C21.28829362 139.90134984 19.14708673 140.9544908 17 142 C16.23091309 142.37688965 15.46182617 142.7537793 14.66943359 143.14208984 C12.31057801 144.2844409 9.94014491 145.39734922 7.5625 146.5 C6.83015137 146.8503833 6.09780273 147.2007666 5.34326172 147.56176758 C0.31048201 149.82920214 -3.47954959 150.43250536 -9 150 C-9.66 149.67 -10.32 149.34 -11 149 C-11 148.34 -11 147.68 -11 147 C-11.58265625 146.731875 -12.1653125 146.46375 -12.765625 146.1875 C-15.02786601 144.98519009 -16.80576318 143.66174087 -18.75 142 C-19.36359375 141.484375 -19.9771875 140.96875 -20.609375 140.4375 C-22 139 -22 139 -22 137 C-22.58652344 136.7421875 -23.17304687 136.484375 -23.77734375 136.21875 C-26.17337123 134.90493528 -27.68911552 133.4781599 -29.5625 131.5 C-31.67524223 129.27903267 -33.41613626 127.72257583 -36 126 C-36 125.34 -36 124.68 -36 124 C-36.58845703 123.73372803 -37.17691406 123.46745605 -37.78320312 123.19311523 C-40.05025165 121.97295377 -41.61310284 120.68465798 -43.46875 118.91015625 C-44.11690674 118.29543457 -44.76506348 117.68071289 -45.43286133 117.04736328 C-46.11501709 116.3923584 -46.79717285 115.73735352 -47.5 115.0625 C-48.93061185 113.70663259 -50.3616052 112.35116759 -51.79296875 110.99609375 C-52.50114746 110.32304199 -53.20932617 109.64999023 -53.93896484 108.95654297 C-56.88176386 106.16294059 -59.83834555 103.38517639 -62.8125 100.625 C-63.74707031 99.75101562 -64.68164062 98.87703125 -65.64453125 97.9765625 C-67.91754836 95.82327383 -67.91754836 95.82327383 -71 95 C-72.36733028 95.95298777 -73.70264493 96.95374591 -75 98 C-75.66 98 -76.32 98 -77 98 C-77 98.66 -77 99.32 -77 100 C-78.34521484 101.23681641 -78.34521484 101.23681641 -80.2109375 102.6015625 C-80.87867188 103.09140625 -81.54640625 103.58125 -82.234375 104.0859375 C-82.94078125 104.59382813 -83.6471875 105.10171875 -84.375 105.625 C-85.07367188 106.140625 -85.77234375 106.65625 -86.4921875 107.1875 C-91.73689649 111 -91.73689649 111 -94 111 C-94 111.66 -94 112.32 -94 113 C-97.1284695 114.56423475 -99.54282565 114.31723811 -103 114 C-107.7606773 111.06294498 -112.81010167 107.07258191 -114.87890625 101.73046875 C-115.10699839 97.8823337 -113.97373811 95.96682709 -111.625 93 C-109 91 -109 91 -107 91 C-107 90.34 -107 89.68 -107 89 C-105.42578125 87.4140625 -105.42578125 87.4140625 -103.3125 85.625 C-102.22195312 84.69494141 -102.22195312 84.69494141 -101.109375 83.74609375 C-99.44641665 82.36953378 -97.75873826 81.02283651 -96.0625 79.6875 C-93.91019125 78.16126242 -93.91019125 78.16126242 -93 76 C-92.34 76 -91.68 76 -91 76 C-95.10362327 70.81647586 -99.48796454 66.82337593 -104.73046875 62.796875 C-106.64643275 61.27993276 -108.40518002 59.8493678 -110 58 C-110 57.34 -110 56.68 -110 56 C-110.99 55.67 -111.98 55.34 -113 55 C-114.68596436 51.62807127 -114.59742444 49.76377399 -114 46 C-110.17126148 41.20635762 -106.14784369 36.41212417 -99.8671875 35.58984375 C-94.67087093 36.14096824 -92.09231216 38.33164646 -88.125 41.5625 C-87.42826172 42.1080957 -86.73152344 42.65369141 -86.01367188 43.21582031 C-84.63145973 44.30037468 -83.25465116 45.39185701 -81.88378906 46.49072266 C-79.44728954 48.44282738 -76.97382917 50.34554421 -74.5 52.25 C-73.33212463 53.16512622 -72.16486792 54.08104864 -71 55 C-67.51345524 53.5158627 -65.35808928 51.53785948 -62.75 48.8125 C-59.43532567 45.42273596 -56.05633318 42.24778442 -52.453125 39.171875 C-50.34014551 37.30114794 -48.28322264 35.39318427 -46.234375 33.453125 C-45.55971191 32.81528076 -44.88504883 32.17743652 -44.18994141 31.52026367 C-42.82377608 30.22500714 -41.4613995 28.92574158 -40.10302734 27.62231445 C-39.1587085 26.72838989 -39.1587085 26.72838989 -38.1953125 25.81640625 C-37.62828613 25.27443604 -37.06125977 24.73246582 -36.47705078 24.17407227 C-35 23 -35 23 -33 23 C-32.505 21.515 -32.505 21.515 -32 20 C-30.22265625 18.17578125 -30.22265625 18.17578125 -28.0625 16.3125 C-27.35222656 15.68988281 -26.64195313 15.06726562 -25.91015625 14.42578125 C-24 13 -24 13 -22 13 C-21.67 12.01 -21.34 11.02 -21 10 C-19.29296875 8.28125 -19.29296875 8.28125 -17.1875 6.5 C-16.50042969 5.9121875 -15.81335938 5.324375 -15.10546875 4.71875 C-14.41066406 4.1515625 -13.71585937 3.584375 -13 3 C-12.43925781 2.4328125 -11.87851563 1.865625 -11.30078125 1.28125 C-7.6168007 -0.77027058 -4.11526486 -0.55662139 0 0 Z " fill="#1987D1" transform="translate(114,0)"/>
<path d="M0 0 C4.99452288 0.11972488 8.62156619 1.57147064 13.0078125 3.84375 C13.7299292 4.20251221 14.4520459 4.56127441 15.19604492 4.9309082 C16.6906706 5.6789549 18.18085829 6.43593378 19.66650391 7.20166016 C21.82669184 8.31483037 23.99953327 9.39911264 26.17578125 10.48046875 C27.51670664 11.16193833 28.85659882 11.84544582 30.1953125 12.53125 C31.11884521 12.99337891 31.11884521 12.99337891 32.06103516 13.46484375 C36.0546711 15.57157319 38.53600119 17.48236972 40.8828125 21.34375 C41.47276412 24.81046719 41.42926872 28.23643548 41.40039062 31.74609375 C41.4073999 32.79217804 41.41440918 33.83826233 41.42163086 34.91604614 C41.43922543 38.3713847 41.42758228 41.82590321 41.4140625 45.28125 C41.41675698 47.68351397 41.42063902 50.08577687 41.42565918 52.48803711 C41.43155624 57.5217528 41.42298419 62.55518451 41.40429688 67.58886719 C41.38150768 74.04207464 41.39462958 80.49461665 41.41858673 86.94779968 C41.43303881 91.9080507 41.42844132 96.86814389 41.41807556 101.82839966 C41.41540667 104.20785602 41.41868371 106.58732671 41.42799377 108.96676636 C41.43814916 112.29203263 41.422671 115.61622034 41.40039062 118.94140625 C41.40848755 119.92545441 41.41658447 120.90950256 41.42492676 121.92337036 C41.3719075 126.19326718 41.2965197 128.6638591 39.04040527 132.37158203 C36.35118016 134.82969354 33.48775289 136.52893879 30.2578125 138.15625 C29.29222412 138.65511719 29.29222412 138.65511719 28.30712891 139.1640625 C23.02007249 141.85483031 17.65551775 144.38356766 12.2578125 146.84375 C11.50032715 147.1941333 10.7428418 147.5445166 9.96240234 147.90551758 C6.13751424 149.60561055 3.16334583 150.81748491 -1.1171875 150.34375 C-0.63983154 149.85455078 -0.16247559 149.36535156 0.3293457 148.86132812 C2.47358144 145.38633851 2.55587191 142.04127464 2.73828125 138.0625 C2.79841904 136.85312775 2.79841904 136.85312775 2.85977173 135.61932373 C4.42347896 118.65155956 4.42347896 118.65155956 -1.234375 103.515625 C-4.49343023 100.81237764 -8.11251275 99.00544764 -11.98828125 97.33886719 C-15.31936983 95.78181248 -17.98234037 93.54422358 -20.8046875 91.21875 C-21.83335938 90.4246875 -22.86203125 89.630625 -23.921875 88.8125 C-24.43717773 88.41417969 -24.95248047 88.01585938 -25.48339844 87.60546875 C-28.46192338 85.30525702 -31.44624391 83.01257593 -34.4296875 80.71875 C-35.52997104 79.8724259 -36.63023372 79.02607467 -37.73046875 78.1796875 C-38.51808594 77.57382813 -39.30570312 76.96796875 -40.1171875 76.34375 C-38.57393312 72.26844952 -36.00188398 70.46468243 -32.5546875 67.90625 C-31.38007667 67.02491503 -30.20560472 66.14339495 -29.03125 65.26171875 C-28.4012207 64.7929834 -27.77119141 64.32424805 -27.12207031 63.84130859 C-23.53597292 61.16265279 -19.98514106 58.43785986 -16.4296875 55.71875 C-15.75413818 55.20513916 -15.07858887 54.69152832 -14.38256836 54.16235352 C-13.01691839 53.12138054 -11.66412504 52.06334816 -10.32397461 50.98974609 C-8.1171875 49.34375 -8.1171875 49.34375 -5.39672852 47.81103516 C-1.87067537 45.61400638 1.24002314 43.6751691 2.39846802 39.47344971 C3.16257285 33.98019852 2.83924924 28.48869016 2.5703125 22.96875 C2.52867118 21.28786658 2.49152044 19.60686557 2.45898438 17.92578125 C2.66719763 10.40596876 2.66719763 10.40596876 0.8828125 3.34375 C-1.43875347 2.93645772 -3.7740662 2.59936323 -6.1171875 2.34375 C-3.76200375 -0.01143375 -3.21006386 0.03640639 0 0 Z " fill="#3AA7F1" transform="translate(109.1171875,-0.34375)"/>
<path d="M0 0 C2.38702272 4.77404544 1.43827164 11.84700193 1.51489258 17.1472168 C1.54647028 18.83217073 1.59416158 20.5169045 1.65844727 22.20092773 C2.17977915 36.053655 2.17977915 36.053655 -0.48681641 40.45288086 C-2.54811493 42.29043864 -4.61248608 43.61746806 -7 45 C-8.54289295 46.16573766 -10.07389742 47.34734712 -11.59375 48.54296875 C-13.22672811 49.76108841 -14.86222621 50.97583585 -16.5 52.1875 C-18.25524261 53.49474564 -20.01045042 54.80203802 -21.765625 56.109375 C-22.63767578 56.75712891 -23.50972656 57.40488281 -24.40820312 58.07226562 C-28.36470648 61.01504544 -32.30722503 63.97636797 -36.25 66.9375 C-37.56763396 67.92588041 -38.8853344 68.91417221 -40.203125 69.90234375 C-41.58757812 70.94068359 -41.58757812 70.94068359 -43 72 C-48.74249534 68.39954657 -54.19231568 64.44073542 -59.5625 60.3125 C-60.19430176 59.83707764 -60.82610352 59.36165527 -61.47705078 58.87182617 C-63.04294685 57.65254436 -64.52933197 56.33259678 -66 55 C-66 52 -66 52 -63.875 49.546875 C-62.92498026 48.60611307 -61.96604597 47.67429741 -61 46.75 C-60.49307617 46.2547583 -59.98615234 45.7595166 -59.46386719 45.24926758 C-56.19953309 42.08364909 -52.84882755 39.04549997 -49.3828125 36.1015625 C-47.29359784 34.25894367 -45.26458795 32.37600662 -43.2421875 30.4609375 C-42.56639648 29.82196533 -41.89060547 29.18299316 -41.19433594 28.5246582 C-39.82657598 27.22773904 -38.46256496 25.92685344 -37.10253906 24.62182617 C-36.4731543 24.0260376 -35.84376953 23.43024902 -35.1953125 22.81640625 C-34.62828613 22.27443604 -34.06125977 21.73246582 -33.47705078 21.17407227 C-32 20 -32 20 -30 20 C-29.505 18.515 -29.505 18.515 -29 17 C-27.22265625 15.17578125 -27.22265625 15.17578125 -25.0625 13.3125 C-23.99708984 12.37857422 -23.99708984 12.37857422 -22.91015625 11.42578125 C-21 10 -21 10 -19 10 C-18.67 9.01 -18.34 8.02 -18 7 C-7.4055978 -4.114221 -7.4055978 -4.114221 0 0 Z " fill="#2F81B9" transform="translate(111,3)"/>
<path d="M0 0 C0 21.78 0 43.56 0 66 C-4.73478894 63.29440632 -8.18598128 61.21844384 -12.1875 57.8125 C-16.96303704 53.8252849 -21.85812014 50.06060236 -26.8515625 46.3515625 C-30.34211064 43.74447816 -33.79964916 41.09740167 -37.25 38.4375 C-37.82347168 37.99543213 -38.39694336 37.55336426 -38.98779297 37.09790039 C-40.32565038 36.06585657 -41.66289645 35.03302032 -43 34 C-41.45674562 29.92469952 -38.88469648 28.12093243 -35.4375 25.5625 C-34.26416665 24.68249999 -33.09099817 23.80228011 -31.91796875 22.921875 C-31.28810059 22.45330078 -30.65823242 21.98472656 -30.00927734 21.50195312 C-26.39910676 18.80331772 -22.82786907 16.05371758 -19.25 13.3125 C-18.16211182 12.48274658 -18.16211182 12.48274658 -17.05224609 11.63623047 C-12.51132576 8.17158409 -8.00892814 4.66475014 -3.56640625 1.07421875 C-2 0 -2 0 0 0 Z " fill="#FDFDFE" transform="translate(112,42)"/>
<path d="M0 0 C4.90904208 2.20552155 8.36587365 5.79012693 12.25 9.4375 C12.99507812 10.11876953 13.74015625 10.80003906 14.5078125 11.50195312 C15.56355469 12.48905273 15.56355469 12.48905273 16.640625 13.49609375 C17.28547852 14.09607178 17.93033203 14.6960498 18.59472656 15.31420898 C20 17 20 17 20 20 C16.66666667 23 16.66666667 23 14 23 C14 23.66 14 24.32 14 25 C12.65478516 26.23681641 12.65478516 26.23681641 10.7890625 27.6015625 C10.12132812 28.09140625 9.45359375 28.58125 8.765625 29.0859375 C8.05921875 29.59382813 7.3528125 30.10171875 6.625 30.625 C5.92632813 31.140625 5.22765625 31.65625 4.5078125 32.1875 C-0.73689649 36 -0.73689649 36 -3 36 C-3 36.66 -3 37.32 -3 38 C-6.1284695 39.56423475 -8.54282565 39.31723811 -12 39 C-16.7606773 36.06294498 -21.81010167 32.07258191 -23.87890625 26.73046875 C-24.10699839 22.8823337 -22.97373811 20.96682709 -20.625 18 C-18 16 -18 16 -16 16 C-16 15.34 -16 14.68 -16 14 C-14.42578125 12.4140625 -14.42578125 12.4140625 -12.3125 10.625 C-11.58289062 10.00367187 -10.85328125 9.38234375 -10.1015625 8.7421875 C-7.75735955 6.79885197 -5.37766514 4.90213211 -3 3 C-1.9826127 2.01769502 -0.97403883 1.02530403 0 0 Z " fill="#1772B0" transform="translate(23,75)"/>
</svg>
