<?xml version="1.0" encoding="UTF-8"?>
<svg version="1.1" xmlns="http://www.w3.org/2000/svg" width="150" height="150">
<path d="M0 0 C49.5 0 99 0 150 0 C150 11.25011099 150 11.25011099 149.55116272 15.55924988 C149.45163803 16.53892227 149.35211334 17.51859467 149.24957275 18.5279541 C149.13893494 19.5656897 149.02829712 20.60342529 148.91430664 21.67260742 C148.74115181 23.35505302 148.74115181 23.35505302 148.5644989 25.07148743 C148.18464332 28.75001102 147.79750738 32.42772753 147.41015625 36.10546875 C147.14310022 38.6751132 146.87645932 41.24480082 146.61021423 43.81452942 C146.05256624 49.18682158 145.49175283 54.55876752 144.92797852 59.93041992 C144.20598997 66.80967936 143.48997657 73.68954662 142.77594852 80.56963634 C142.09360073 87.1442975 141.4081728 93.7186373 140.72265625 100.29296875 C140.59244646 101.54361807 140.46223667 102.79426739 140.32808113 104.08281517 C139.95854261 107.62722341 139.58712696 111.17142963 139.21508789 114.71557617 C139.05216751 116.2812886 139.05216751 116.2812886 138.88595581 117.87863159 C138.35290434 122.9370999 137.76308926 127.97090375 137 133 C130.23413267 135.39825231 123.40513971 137.23750052 116.4296875 138.91796875 C115.3492215 139.18007645 114.26875549 139.44218414 113.1555481 139.7122345 C110.8852879 140.26132626 108.61451596 140.8083061 106.34326172 141.35327148 C102.87642421 142.18715743 99.41283883 143.03372238 95.94921875 143.88085938 C93.73456241 144.41484036 91.51972459 144.94806936 89.3046875 145.48046875 C88.27536102 145.73354294 87.24603455 145.98661713 86.18551636 146.24736023 C75.90379246 148.68762155 68.1140317 147.57295936 57.91796875 145.11328125 C56.66744217 144.81439499 55.41691559 144.51550873 54.12849426 144.20756531 C51.49374852 143.57549085 48.86083146 142.93632544 46.22875977 142.29321289 C42.85619564 141.47069854 39.47778314 140.67561875 36.09720898 139.88677692 C32.86620367 139.12683298 29.64271309 138.33686458 26.41796875 137.55078125 C25.20344528 137.27035477 23.98892181 136.98992828 22.7375946 136.70100403 C21.61915665 136.42109116 20.50071869 136.14117828 19.34838867 135.8527832 C18.36134445 135.61517776 17.37430023 135.37757233 16.35734558 135.13276672 C14 134 14 134 12.89617062 131.73655224 C12.03844395 129.11739267 11.58807129 126.81710664 11.30392456 124.08239746 C11.14834579 122.63620529 11.14834579 122.63620529 10.98962402 121.16079712 C10.88460571 120.11451141 10.7795874 119.06822571 10.67138672 117.99023438 C10.55405182 116.87897186 10.43671692 115.76770935 10.31582642 114.62277222 C9.92976622 110.94715615 9.55442378 107.27053654 9.1796875 103.59375 C8.9139519 101.0312441 8.64776075 98.4687854 8.38113403 95.90637207 C7.82341166 90.53017844 7.27078559 85.15349666 6.72216797 79.77636719 C6.09092981 73.59027282 5.44975506 67.40527014 4.803213 61.22075796 C4.1787766 55.24507227 3.56195522 49.26862893 2.94830704 43.29182434 C2.68788844 40.76247919 2.42555611 38.23333028 2.16122055 35.70439148 C1.79092573 32.15186597 1.42929987 28.59855639 1.06982422 25.04492188 C0.96075745 24.01483002 0.85169067 22.98473816 0.73931885 21.9234314 C0.00202244 14.50617954 0 7.54713602 0 0 Z " fill="#E34F26" transform="translate(0,0)"/>
<path d="M0 0 C31.02 0 62.04 0 94 0 C93.67 5.28 93.34 10.56 93 16 C69.24 16 45.48 16 21 16 C21.33 18.31 21.66 20.62 22 23 C22 26.3 22 29.6 22 33 C44.44 33 66.88 33 90 33 C90 39.72226107 89.8303519 46.08912638 89.125 52.7265625 C89.03621582 53.60025482 88.94743164 54.47394714 88.85595703 55.37411499 C88.57534407 58.12491723 88.28780242 60.87494166 88 63.625 C87.80682998 65.50646307 87.6141176 67.38797319 87.421875 69.26953125 C86.95319711 73.84691422 86.47831026 78.42361395 86 83 C78.9195933 85.41581567 71.83233232 87.41703572 64.5625 89.1875 C63.49451172 89.46013672 62.42652344 89.73277344 61.32617188 90.01367188 C47.89617264 93.28708036 37.52848086 91.26576738 24.375 88 C22.78280456 87.61354165 21.190358 87.22811636 19.59765625 86.84375 C15.72877228 85.90772056 11.86355675 84.9577698 8 84 C7.66421551 81.64515509 7.33439303 79.28971825 7.0078125 76.93359375 C6.91346924 76.27629272 6.81912598 75.6189917 6.72192383 74.94177246 C5.89369094 68.90830014 5.84988971 63.07946664 6 57 C12.27 57 18.54 57 25 57 C25.495 63.93 25.495 63.93 26 71 C27.9490625 71.185625 27.9490625 71.185625 29.9375 71.375 C33.20657076 71.72233877 36.26178153 72.28570298 39.4375 73.125 C48.71376022 75.25581625 57.9806707 72.20685717 67 70 C67.66 63.4 68.32 56.8 69 50 C67.06648682 50.00523682 65.13297363 50.01047363 63.14086914 50.01586914 C56.76662298 50.03196655 50.39238162 50.04347217 44.01812077 50.05181217 C40.15179882 50.05704026 36.28549879 50.06413654 32.41918945 50.07543945 C28.69096599 50.086271 24.96276366 50.0922774 21.23452568 50.09487724 C19.80910344 50.09673101 18.38368241 50.10035071 16.95826912 50.10573006 C14.96836592 50.11294393 12.97844166 50.11340808 10.98852539 50.11352539 C9.85379288 50.115746 8.71906036 50.11796661 7.54994202 50.12025452 C5 50 5 50 4 49 C3.62439815 45.98564731 3.30657438 42.98467514 3.02734375 39.9609375 C2.8962899 38.58961166 2.8962899 38.58961166 2.7625885 37.19058228 C2.57808949 35.24884105 2.39581941 33.30688698 2.21557617 31.36474609 C1.94056417 28.40794455 1.65737433 25.45201237 1.37304688 22.49609375 C1.19481896 20.60942156 1.01706956 18.72270409 0.83984375 16.8359375 C0.75548569 15.95650482 0.67112762 15.07707214 0.58421326 14.17098999 C0.46893028 12.91531723 0.46893028 12.91531723 0.35131836 11.63427734 C0.28327499 10.90671234 0.21523163 10.17914734 0.14512634 9.42953491 C-0.04231704 6.29157777 0 3.14355055 0 0 Z " fill="#FEFCFC" transform="translate(28,27)"/>
<path d="M0 0 C20.13 0 40.26 0 61 0 C59.67183476 17.26614809 58.22930807 34.46301501 56.1784668 51.65722656 C54.96983616 61.93551241 54.00634238 72.23195149 53.06152344 82.53686523 C52.12912516 92.7013794 51.11140126 102.85356029 50 113 C43.6096697 115.21039166 37.08826162 116.82095824 30.53466797 118.45898438 C28.40068623 118.99356537 26.26870172 119.5356357 24.13671875 120.078125 C16.13580032 122.09423637 8.16585526 123.76935305 0 125 C-0.33 119.39 -0.66 113.78 -1 108 C1.145 107.51789063 3.29 107.03578125 5.5 106.5390625 C7.60177638 106.06598185 9.70347936 105.59257639 11.80517578 105.11914062 C13.25399275 104.79295536 14.70288453 104.46710218 16.15185547 104.14160156 C18.24727323 103.67081852 20.34240953 103.19879963 22.4375 102.7265625 C24.32275391 102.30238037 24.32275391 102.30238037 26.24609375 101.86962891 C30.1750895 100.95943881 34.08737145 99.97815714 38 99 C39.65 82.5 41.3 66 43 49 C20.56 49 -1.88 49 -25 49 C-25.33 43.39 -25.66 37.78 -26 32 C-2.24 32 21.52 32 46 32 C46 28.04 46 24.08 46 20 C46.33 18.68 46.66 17.36 47 16 C31.49 16 15.98 16 0 16 C0 10.72 0 5.44 0 0 Z " fill="#EE662C" transform="translate(75,11)"/>
<path d="M0 0 C31.02 0 62.04 0 94 0 C93.67 5.28 93.34 10.56 93 16 C69.24 16 45.48 16 21 16 C21.33 18.31 21.66 20.62 22 23 C22 26.3 22 29.6 22 33 C30.25 33 38.5 33 47 33 C47 38.28 47 43.56 47 49 C54.59 49 62.18 49 70 49 C70 50.65 70 52.3 70 54 C69.505 52.02 69.505 52.02 69 50 C68.20042374 50.00222061 67.40084747 50.00444122 66.57704163 50.00672913 C59.05740361 50.02673092 51.53777841 50.04197355 44.01812077 50.05181217 C40.15179882 50.05704026 36.28549879 50.06413654 32.41918945 50.07543945 C28.69096599 50.086271 24.96276366 50.0922774 21.23452568 50.09487724 C19.80910344 50.09673101 18.38368241 50.10035071 16.95826912 50.10573006 C14.96836592 50.11294393 12.97844166 50.11340808 10.98852539 50.11352539 C9.85379288 50.115746 8.71906036 50.11796661 7.54994202 50.12025452 C5 50 5 50 4 49 C3.62439815 45.98564731 3.30657438 42.98467514 3.02734375 39.9609375 C2.8962899 38.58961166 2.8962899 38.58961166 2.7625885 37.19058228 C2.57808949 35.24884105 2.39581941 33.30688698 2.21557617 31.36474609 C1.94056417 28.40794455 1.65737433 25.45201237 1.37304688 22.49609375 C1.19481896 20.60942156 1.01706956 18.72270409 0.83984375 16.8359375 C0.75548569 15.95650482 0.67112762 15.07707214 0.58421326 14.17098999 C0.46893028 12.91531723 0.46893028 12.91531723 0.35131836 11.63427734 C0.28327499 10.90671234 0.21523163 10.17914734 0.14512634 9.42953491 C-0.04231704 6.29157777 0 3.14355055 0 0 Z " fill="#EBE9E9" transform="translate(28,27)"/>
<path d="M0 0 C6.27 0 12.54 0 19 0 C19.495 6.93 19.495 6.93 20 14 C21.216875 14.103125 22.43375 14.20625 23.6875 14.3125 C29.91936967 14.98944431 35.91414982 16.52658364 42 18 C41.67 23.61 41.34 29.22 41 35 C35.61099635 34.32637454 30.68316948 33.57322634 25.4375 32.37109375 C24.76074219 32.21713638 24.08398438 32.06317902 23.38671875 31.90455627 C21.25695981 31.41918261 19.12848045 30.92844631 17 30.4375 C15.54305051 30.10445982 14.08601988 29.77177442 12.62890625 29.43945312 C9.08499174 28.63039416 5.5422025 27.81652603 2 27 C1.66421551 24.64515509 1.33439303 22.28971825 1.0078125 19.93359375 C0.91346924 19.27629272 0.81912598 18.6189917 0.72192383 17.94177246 C-0.10630906 11.90830014 -0.15011029 6.07946664 0 0 Z " fill="#EBE7E8" transform="translate(34,84)"/>
<path d="M0 0 C15.51 0 31.02 0 47 0 C46.67 5.28 46.34 10.56 46 16 C30.82 16 15.64 16 0 16 C0 10.72 0 5.44 0 0 Z " fill="#FEFDFD" transform="translate(75,27)"/>
<path d="M0 0 C7.26 0 14.52 0 22 0 C22 10.125 22 10.125 21.5 15.0625 C21.4071875 16.00222656 21.314375 16.94195312 21.21875 17.91015625 C21.1465625 18.59980469 21.074375 19.28945312 21 20 C16.43970358 21.63375106 11.87364948 22.7227461 7.125 23.625 C3.598125 24.305625 3.598125 24.305625 0 25 C0 16.75 0 8.5 0 0 Z " fill="#EF652B" transform="translate(75,77)"/>
<path d="M0 0 C8.58 0 17.16 0 26 0 C26 5.28 26 10.56 26 16 C17.75 16 9.5 16 1 16 C0.67 10.72 0.34 5.44 0 0 Z " fill="#E34F27" transform="translate(49,44)"/>
</svg>
