<?xml version="1.0" encoding="UTF-8"?>
<svg version="1.1" xmlns="http://www.w3.org/2000/svg" width="150" height="150">
<path d="M0 0 C10.04269854 0.32983798 18.21010351 6.31618237 26.57910156 11.34472656 C30.23852356 13.49321449 33.99762887 15.39172034 37.81054688 17.25 C38.45693115 17.56904297 39.10331543 17.88808594 39.76928711 18.21679688 C41.57296836 19.10639848 43.37919736 19.99082892 45.18554688 20.875 C51.92993771 24.2007697 58.64262774 27.58593451 65.31054688 31.0625 C65.96289307 31.39572266 66.61523926 31.72894531 67.28735352 32.07226562 C70.49955502 33.76365924 72.13115361 34.7934101 74.18554688 37.875 C74.40477773 40.31847781 74.51019761 42.65128477 74.52368164 45.09692383 C74.53521774 45.82899551 74.54675385 46.5610672 74.55863953 47.31532288 C74.59295353 49.73758068 74.61144955 52.15958373 74.62695312 54.58203125 C74.63730748 55.82438317 74.63730748 55.82438317 74.64787102 57.09183311 C74.68370831 61.47536792 74.70724646 65.85877396 74.72094727 70.24243164 C74.73749444 74.76569745 74.79591515 79.28739957 74.86409092 83.81013966 C74.9089132 87.29236957 74.92244436 90.77422595 74.92756462 94.25671959 C74.93545146 95.92371973 74.95507684 97.59070815 74.9867878 99.25742531 C75.21787351 112.2614454 75.21787351 112.2614454 72.70220947 116.1934967 C70.91641499 117.77030861 69.31831258 118.83059131 67.18554688 119.875 C66.55625778 120.23220123 65.92696869 120.58940247 65.27861023 120.95742798 C63.48953716 121.95596602 61.6687684 122.82495519 59.81054688 123.6875 C58.39554259 124.36914217 56.98151112 125.05280674 55.56835938 125.73828125 C54.84551758 126.08713379 54.12267578 126.43598633 53.37792969 126.79541016 C49.76957667 128.57226283 46.23005906 130.4748281 42.68554688 132.375 C33.54736916 137.25198177 24.28453166 141.86287884 14.99804688 146.44921875 C13.63679688 147.12404297 13.63679688 147.12404297 12.24804688 147.8125 C11.08982422 148.38291016 11.08982422 148.38291016 9.90820312 148.96484375 C8.20675523 149.7554974 8.20675523 149.7554974 7.18554688 150.875 C-3.24337741 152.95453063 -10.56231768 150.14384844 -19.68945312 145.125 C-20.67067139 144.58721924 -21.65188965 144.04943848 -22.6628418 143.49536133 C-29.60297511 139.47300913 -29.60297511 139.47300913 -30.58837891 136.68652344 C-30.6629834 136.0887207 -30.73758789 135.49091797 -30.81445312 134.875 C-20.58336239 130.07499294 -20.58336239 130.07499294 -15.18945312 131.8125 C-11.23083617 133.46959547 -7.60935467 135.69085716 -4.05273438 138.08203125 C-0.69192192 139.27268558 0.93866135 138.28198373 4.18554688 136.875 C7.16325031 135.42623909 10.08243921 133.88196224 12.99804688 132.3125 C13.83118408 131.86922363 14.66432129 131.42594727 15.52270508 130.96923828 C18.07916738 129.6085367 20.63253049 128.24215372 23.18554688 126.875 C31.73573612 122.31112173 40.29558232 117.76718947 48.93554688 113.375 C49.59127686 113.03645996 50.24700684 112.69791992 50.92260742 112.34912109 C54.46825865 110.56358125 57.21451192 109.66920699 61.18554688 108.875 C61.18554688 87.095 61.18554688 65.315 61.18554688 42.875 C58.87554687 42.215 56.56554687 41.555 54.18554688 40.875 C52.31445312 39.8671875 52.31445312 39.8671875 50.74804688 38.75 C44.91852024 34.91981005 38.59080222 32.00614199 32.34082031 28.93652344 C28.82235372 27.20359494 25.31695178 25.44467039 21.81054688 23.6875 C18.23174195 21.89571427 14.65226599 20.10573097 11.06445312 18.33203125 C10.17628906 17.89246094 9.288125 17.45289062 8.37304688 17 C7.24962891 16.44699219 7.24962891 16.44699219 6.10351562 15.8828125 C4.18554687 14.875 4.18554687 14.875 1.18554688 12.875 C-4.401733 13.08132496 -8.71778763 15.68414088 -13.50195312 18.3125 C-15.19977853 19.22543016 -16.89769788 20.13818563 -18.59570312 21.05078125 C-19.46066406 21.5195166 -20.325625 21.98825195 -21.21679688 22.47119141 C-25.29678249 24.67607085 -29.39799254 26.8401538 -33.50195312 29 C-34.28151367 29.41040527 -35.06107422 29.82081055 -35.86425781 30.24365234 C-41.14053052 33.01386061 -46.43275317 35.75058903 -51.75195312 38.4375 C-52.40832764 38.77217285 -53.06470215 39.1068457 -53.7409668 39.45166016 C-56.80035065 40.98437878 -59.46801325 42.03839003 -62.81445312 42.875 C-62.81445312 64.655 -62.81445312 86.435 -62.81445312 108.875 C-59.84445313 109.865 -56.87445313 110.855 -53.81445312 111.875 C-51.24804688 113.26171875 -51.24804688 113.26171875 -49.25195312 114.5625 C-44.82715388 117.13975149 -41.88686379 117.49792763 -36.81445312 116.875 C-34.05214198 114.11268885 -34.55162101 112.49016546 -34.52734375 108.62109375 C-34.50722229 106.64894897 -34.50722229 106.64894897 -34.48669434 104.63696289 C-34.48413132 103.93233917 -34.4815683 103.22771545 -34.47892761 102.5017395 C-34.47065514 100.29972826 -34.45016719 98.09813508 -34.4263916 95.89624023 C-34.37811618 91.22255527 -34.34520357 86.54882884 -34.31445312 81.875 C-34.27882738 76.46016376 -34.23697872 71.04553189 -34.17851257 65.63088989 C-34.15839521 63.4582452 -34.15011502 61.28575568 -34.14221191 59.11303711 C-34.12209045 57.14089233 -34.12209045 57.14089233 -34.1015625 55.12890625 C-34.09427124 53.96689697 -34.08697998 52.8048877 -34.07946777 51.60766602 C-33.81445312 48.875 -33.81445312 48.875 -31.81445312 46.875 C-29.02929688 46.64453125 -29.02929688 46.64453125 -25.75195312 46.6875 C-24.12580078 46.69716797 -24.12580078 46.69716797 -22.46679688 46.70703125 C-19.81445312 46.875 -19.81445312 46.875 -18.81445312 47.875 C-18.69913934 49.97952134 -18.6547492 52.08794944 -18.63745117 54.19555664 C-18.62759438 55.18599472 -18.62759438 55.18599472 -18.61753845 56.19644165 C-18.59775065 58.39268093 -18.58612607 60.5888514 -18.57617188 62.78515625 C-18.57209635 63.53550077 -18.56802082 64.2858453 -18.56382179 65.05892754 C-18.54293002 69.03627118 -18.5286462 73.01358009 -18.51928711 76.9909668 C-18.50826252 81.08766285 -18.47391823 85.18380971 -18.43411541 89.28031254 C-18.40787157 92.43833882 -18.39958806 95.59623639 -18.39600563 98.75436211 C-18.39115358 100.26334751 -18.37957912 101.7723277 -18.36096764 103.28120613 C-18.19085468 117.99668707 -18.19085468 117.99668707 -22.81445312 124.875 C-27.63879199 129.69933887 -32.33319945 130.03329998 -38.93945312 130.1875 C-48.71064421 130.06700325 -56.25453876 126.29701916 -64.75195312 121.875 C-65.39116699 121.54306641 -66.03038086 121.21113281 -66.68896484 120.86914062 C-70.30799059 118.91415617 -73.27266212 117.12097581 -75.81445312 113.875 C-76.21465723 111.28353928 -76.37245016 109.11345466 -76.34790039 106.52368164 C-76.36082375 105.42294563 -76.36082375 105.42294563 -76.37400818 104.29997253 C-76.39668179 101.87800667 -76.38992704 99.45719668 -76.38085938 97.03515625 C-76.38609469 95.34890906 -76.39237083 93.66266481 -76.39964294 91.97642517 C-76.41004991 88.44320898 -76.40548213 84.91039545 -76.39086914 81.37719727 C-76.37368762 76.85296625 -76.39716614 72.33000597 -76.43235874 67.80591679 C-76.45433823 64.32368073 -76.45288991 60.84174841 -76.44459343 57.35946465 C-76.44377407 55.69172205 -76.4506347 54.02395712 -76.46536446 52.35627937 C-76.48282026 50.02196726 -76.46826273 47.68993403 -76.44555664 45.35571289 C-76.45724884 44.66931732 -76.46894104 43.98292175 -76.48098755 43.27572632 C-76.40669798 39.51504254 -75.8942071 37.9724598 -73.48252869 35.02537537 C-70.41687186 32.55456344 -67.23661936 30.83578521 -63.68945312 29.1875 C-62.25876904 28.49815828 -60.82912444 27.80665607 -59.40039062 27.11328125 C-58.65241211 26.75186035 -57.90443359 26.39043945 -57.13378906 26.01806641 C-53.1497484 24.05456342 -49.23556486 21.96057046 -45.31445312 19.875 C-35.83416395 14.85302974 -26.25350146 10.05497227 -16.63476562 5.3046875 C-15.7246875 4.85351562 -14.81460938 4.40234375 -13.87695312 3.9375 C-13.10480469 3.55722656 -12.33265625 3.17695312 -11.53710938 2.78515625 C-7.58270594 0.69586827 -4.74211452 0.13934588 0 0 Z " fill="#529E43" transform="translate(75.814453125,-0.875)"/>
<path d="M0 0 C4.76612939 4.32193093 6.02112741 8.36467755 6.5703125 14.55078125 C6.55078125 16.40625 6.55078125 16.40625 5.55078125 17.40625 C1.45783668 18.01516967 -2.37463445 18.18107122 -6.44921875 17.40625 C-8.25032586 15.50556244 -9.1336742 13.6661526 -10.2734375 11.3203125 C-11.44137025 9.00259804 -11.44137025 9.00259804 -15.01171875 7.90625 C-22.9126496 6.64928373 -30.90065465 6.6613176 -38.44921875 9.40625 C-38.77921875 11.05625 -39.10921875 12.70625 -39.44921875 14.40625 C-33.28332102 17.55033383 -27.41180857 18.22333412 -20.57421875 18.90625 C-1.7845373 20.79688875 -1.7845373 20.79688875 5.55078125 26.40625 C8.51613772 30.21885118 9.39056343 33.59971542 9.55078125 38.40625 C8.56961137 44.38721107 6.41204552 48.50209271 1.578125 52.19140625 C-11.26828413 59.88935083 -29.42917952 58.85559458 -43.48046875 55.375 C-49.37131865 53.45272266 -52.83801265 50.94767975 -55.88671875 45.53125 C-57.61693161 41.65851824 -57.79895952 38.60313923 -57.44921875 34.40625 C-54.98552343 33.17440234 -53.25976865 33.23892658 -50.51171875 33.21875 C-49.19880859 33.19748047 -49.19880859 33.19748047 -47.859375 33.17578125 C-45.44921875 33.40625 -45.44921875 33.40625 -42.44921875 35.40625 C-42.05734375 36.56125 -41.66546875 37.71625 -41.26171875 38.90625 C-39.78005858 42.65368975 -39.78005858 42.65368975 -36.26171875 43.84375 C-32.00799009 44.56324686 -27.69283916 44.60135401 -23.38671875 44.65625 C-22.37798706 44.6706311 -22.37798706 44.6706311 -21.34887695 44.68530273 C-17.14969068 44.65707205 -10.65395389 44.61098514 -7.44921875 41.40625 C-7.40841092 39.40666636 -7.40667519 37.40579746 -7.44921875 35.40625 C-13.96691568 32.87556914 -19.99523577 31.85162882 -26.94921875 31.40625 C-36.24961764 30.81059126 -45.06000889 29.56392488 -52.44921875 23.40625 C-55.55536474 18.85056922 -56.21329517 14.76554661 -55.44921875 9.40625 C-53.59482147 3.95214036 -50.16727863 0.54185501 -45.44921875 -2.59375 C-32.68809765 -7.46617806 -11.34049085 -8.35359497 0 0 Z " fill="#539E43" transform="translate(117.44921875,49.59375)"/>
</svg>
